{
.appVersion = "3151";
.formatVersion = 3;
DisplayStrings = (
q,
r,
p,
b
);
axes = (
{
name = volume;
tag = VOLM;
},
{
name = emotion;
tag = EMOT;
}
);
date = "2023-04-07 14:55:27 +0000";
familyName = "New Font";
fontMaster = (
{
axesValues = (
0,
0
);
iconName = Light;
id = m01;
metricValues = (
{
over = 16;
pos = 800;
},
{
over = 16;
pos = 700;
},
{
over = 16;
pos = 500;
},
{
over = -16;
},
{
over = -16;
pos = -200;
},
{
over = -16;
}
);
name = whisper;
},
{
axesValues = (
100,
0
);
id = "8BBC5D12-C2A2-42BE-94C4-42D1DE80799C";
metricValues = (
{
over = 16;
pos = 800;
},
{
over = 16;
pos = 700;
},
{
over = 16;
pos = 500;
},
{
over = -16;
},
{
over = -16;
pos = -200;
},
{
over = -16;
}
);
name = scream;
},
{
axesValues = (
0,
100
);
id = "E47E1377-DCF2-49F5-8019-9A7312669877";
metricValues = (
{
over = 16;
pos = 800;
},
{
over = 16;
pos = 700;
},
{
over = 16;
pos = 500;
},
{
over = -16;
},
{
over = -16;
pos = -200;
},
{
over = -16;
}
);
name = happy;
},
{
axesValues = (
100,
100
);
id = "2E32C3C1-CB0A-4F55-A80D-7437AACFC458";
metricValues = (
{
over = 16;
pos = 800;
},
{
over = 16;
pos = 700;
},
{
over = 16;
pos = 500;
},
{
over = -16;
},
{
over = -16;
pos = -200;
},
{
over = -16;
}
);
name = sad;
}
);
glyphs = (
{
glyphname = a;
lastChange = "2023-04-21 17:22:55 +0000";
layers = (
{
layerId = m01;
shapes = (
{
closed = 1;
nodes = (
(238,111,o),
(275,149,o),
(286,174,q),
(289,174,l),
(289,122,l),
(304,122,l),
(304,194,o),
(304,267,o),
(304,339,c),
(304,362,o),
(287,402,o),
(256,431,o),
(212,448,o),
(184,448,q),
(155,448,o),
(106,430,o),
(70,396,o),
(61,373,q),
(75,368,l),
(87,398,o),
(145,432,o),
(184,432,q),
(231,432,o),
(289,381,o),
(289,339,q),
(289,342,l),
(289,327,o),
(260,312,o),
(215,304,o),
(190,302,q),
(147,296,o),
(92,277,o),
(62,250,o),
(50,218,o),
(50,198,q),
(50,164,o),
(81,116,o),
(133,91,o),
(163,91,q),
(190,91,o)
);
},
{
closed = 1;
nodes = (
(65,157,o),
(65,198,q),
(65,222,o),
(89,258,o),
(146,281,o),
(195,287,q),
(211,289,o),
(239,293,o),
(263,299,o),
(281,307,o),
(289,312,q),
(289,256,l),
(289,212,o),
(255,144,o),
(197,107,o),
(163,107,q),
(122,107,o)
);
}
);
width = 354;
},
{
layerId = "8BBC5D12-C2A2-42BE-94C4-42D1DE80799C";
shapes = (
{
closed = 1;
nodes = (
(323,6,o),
(382,49,o),
(406,83,q),
(411,83,l),
(397,-3,l),
(603,-3,l),
(626,149,o),
(650,301,o),
(673,453,c),
(681,496,o),
(654,569,o),
(589,624,o),
(489,655,o),
(424,655,q),
(332,655,o),
(199,598,o),
(120,503,o),
(107,447,q),
(293,447,l),
(304,483,o),
(361,517,o),
(399,517,q),
(436,517,o),
(476,485,o),
(472,455,q),
(472,453,l),
(471,409,o),
(427,369,o),
(347,354,o),
(282,349,q),
(234,346,o),
(167,333,o),
(98,288,o),
(51,217,o),
(43,166,q),
(33,105,o),
(71,26,o),
(154,-13,o),
(213,-13,q),
(253,-13,o)
);
},
{
closed = 1;
nodes = (
(217,178,o),
(222,209,q),
(225,229,o),
(250,262,o),
(295,284,o),
(327,289,q),
(345,292,o),
(376,298,o),
(405,306,o),
(431,313,o),
(442,317,q),
(432,253,l),
(426,218,o),
(382,169,o),
(322,143,o),
(292,143,q),
(256,143,o)
);
}
);
width = 716;
},
{
layerId = "E47E1377-DCF2-49F5-8019-9A7312669877";
shapes = (
{
closed = 1;
nodes = (
(369,25,o),
(418,64,o),
(430,83,q),
(435,82,l),
(425,0,l),
(520,-12,l),
(536,122,o),
(552,256,o),
(568,390,cs),
(576,463,o),
(539,555,o),
(472,606,o),
(397,630,o),
(368,633,qs),
(322,639,o),
(223,626,o),
(136,572,o),
(106,520,q),
(191,477,l),
(210,509,o),
(294,559,o),
(361,550,qs),
(426,543,o),
(474,470,o),
(474,410,qs),
(474,407,ls),
(474,385,o),
(438,371,o),
(368,371,o),
(310,371,qs),
(267,371,o),
(182,363,o),
(108,334,o),
(58,273,o),
(52,220,qs),
(45,160,o),
(90,70,o),
(181,15,o),
(238,8,qs),
(291,2,o)
);
},
{
closed = 1;
nodes = (
(132,187,o),
(148,235,qs),
(156,259,o),
(207,257,o),
(262,254,o),
(310,258,qs),
(346,261,o),
(381,267,o),
(419,278,o),
(440,287,o),
(458,300,q),
(446,256,l),
(440,226,o),
(397,182,o),
(345,152,o),
(297,144,qs),
(236,136,o)
);
}
);
width = 620;
},
{
layerId = "2E32C3C1-CB0A-4F55-A80D-7437AACFC458";
shapes = (
{
closed = 1;
nodes = (
(388,11,o),
(433,51,o),
(442,69,q),
(447,69,l),
(447,-5,l),
(542,-5,l),
(542,116,o),
(542,238,o),
(542,360,cs),
(542,425,o),
(494,504,o),
(421,543,o),
(344,555,o),
(314,555,qs),
(268,555,o),
(182,533,o),
(112,460,o),
(106,406,q),
(206,402,l),
(205,433,o),
(250,480,o),
(318,480,qs),
(383,480,o),
(447,422,o),
(447,368,qs),
(447,365,ls),
(447,344,o),
(415,328,o),
(345,321,o),
(289,315,qs),
(246,310,o),
(162,293,o),
(92,259,o),
(50,199,o),
(50,151,qs),
(50,97,o),
(106,22,o),
(202,-18,o),
(260,-18,qs),
(314,-18,o)
);
},
{
closed = 1;
nodes = (
(114,122,o),
(119,142,qs),
(127,176,o),
(172,216,o),
(220,236,o),
(256,241,qs),
(270,243,o),
(323,241,o),
(355,232,o),
(383,216,o),
(401,192,q),
(411,177,ls),
(430,147,o),
(353,177,o),
(304,188,o),
(250,179,qs),
(196,169,o)
);
}
);
width = 592;
}
);
unicode = 97;
},
{
glyphname = b;
lastChange = "2023-04-21 17:42:47 +0000";
layers = (
{
layerId = m01;
shapes = (
{
closed = 1;
nodes = (
(65,240,l),
(67,240,l),
(77,210,o),
(113,165,o),
(163,140,o),
(192,140,q),
(236,140,o),
(299,191,o),
(334,277,o),
(334,331,q),
(334,386,o),
(299,472,o),
(235,523,o),
(192,523,q),
(163,523,o),
(113,498,o),
(77,454,o),
(67,422,q),
(65,422,l),
(65,495,o),
(65,567,o),
(65,640,c),
(50,640,l),
(50,488,o),
(50,337,o),
(50,185,c),
(65,185,l)
);
},
{
closed = 1;
nodes = (
(96,461,o),
(153,507,o),
(192,507,q),
(231,507,o),
(288,461,o),
(319,382,o),
(319,331,q),
(319,281,o),
(288,202,o),
(231,156,o),
(192,156,q),
(153,156,o),
(96,202,o),
(65,281,o),
(65,331,q),
(65,382,o)
);
}
);
width = 384;
},
{
layerId = "8BBC5D12-C2A2-42BE-94C4-42D1DE80799C";
shapes = (
{
closed = 1;
nodes = (
(275,96,l),
(282,96,l),
(289,65,o),
(328,16,o),
(391,-13,o),
(434,-13,q),
(499,-13,o),
(621,56,o),
(711,196,o),
(728,303,q),
(747,414,o),
(701,553,o),
(602,618,o),
(541,618,q),
(495,618,o),
(421,586,o),
(366,534,o),
(349,503,q),
(346,503,l),
(370,650,o),
(387,746,o),
(411,893,c),
(190,893,l),
(137,576,o),
(93,312,o),
(40,-5,c),
(259,-5,l)
);
},
{
closed = 1;
nodes = (
(393,467,o),
(455,511,o),
(493,511,q),
(530,511,o),
(577,467,o),
(592,386,o),
(583,329,q),
(574,272,o),
(532,191,o),
(470,147,o),
(433,147,q),
(395,147,o),
(348,192,o),
(332,273,o),
(340,329,q),
(350,386,o)
);
}
);
width = 777;
},
{
layerId = "E47E1377-DCF2-49F5-8019-9A7312669877";
shapes = (
{
closed = 1;
nodes = (
(186,61,l),
(197,61,l),
(209,45,o),
(250,-2,o),
(323,-38,o),
(382,-34,qs),
(459,-29,o),
(572,56,o),
(629,202,o),
(623,299,qs),
(617,396,o),
(542,535,o),
(419,604,o),
(342,599,qs),
(282,596,o),
(214,553,o),
(181,500,o),
(171,484,q),
(163,483,l),
(157,584,o),
(150,684,o),
(144,785,c),
(50,779,l),
(67,506,o),
(84,234,o),
(101,-39,c),
(192,-33,l)
);
},
{
closed = 1;
nodes = (
(223,336,o),
(316,282,o),
(374,286,qs),
(434,290,o),
(498,355,o),
(555,283,o),
(543,232,qs),
(530,177,o),
(493,136,o),
(441,103,o),
(384,101,qs),
(325,99,o),
(254,123,o),
(204,180,o),
(194,231,qs),
(185,277,o)
);
}
);
width = 674;
},
{
layerId = "2E32C3C1-CB0A-4F55-A80D-7437AACFC458";
shapes = (
{
closed = 1;
nodes = (
(150,74,l),
(161,74,l),
(172,59,o),
(210,14,o),
(280,-23,o),
(339,-23,qs),
(416,-23,o),
(535,46,o),
(602,174,o),
(603,261,qs),
(604,350,o),
(539,479,o),
(421,549,o),
(344,549,qs),
(284,550,o),
(213,516,o),
(176,470,o),
(165,456,q),
(157,456,l),
(168,547,o),
(177,579,o),
(201,729,c),
(104,729,l),
(43,500,o),
(44,230,o),
(59,-9,c),
(150,-10,l)
);
},
{
closed = 1;
nodes = (
(232,242,o),
(299,273,o),
(341,264,q),
(383,255,o),
(436,199,o),
(461,142,o),
(459,130,q),
(457,118,o),
(427,144,o),
(373,186,o),
(331,195,q),
(288,204,o),
(223,186,o),
(189,174,o),
(190,186,q),
(192,198,o)
);
}
);
width = 653;
}
);
unicode = 98;
},
{
glyphname = c;
lastChange = "2023-04-21 17:22:55 +0000";
layers = (
{
layerId = m01;
shapes = (
{
closed = 1;
nodes = (
(295,130,o),
(332,183,o),
(337,217,q),
(321,217,l),
(317,187,o),
(284,142,o),
(235,117,o),
(205,117,q),
(164,117,o),
(101,165,o),
(65,244,o),
(65,293,q),
(65,343,o),
(102,423,o),
(165,469,o),
(205,469,q),
(248,469,o),
(313,414,o),
(320,371,q),
(337,371,l),
(331,405,o),
(293,456,o),
(238,484,o),
(205,484,q),
(160,484,o),
(90,433,o),
(50,347,o),
(50,293,q),
(50,238,o),
(91,152,o),
(160,102,o),
(205,102,q),
(238,102,o)
);
}
);
width = 387;
},
{
layerId = "8BBC5D12-C2A2-42BE-94C4-42D1DE80799C";
shapes = (
{
closed = 1;
nodes = (
(546,66,o),
(638,186,o),
(653,267,q),
(448,267,l),
(440,235,o),
(409,191,o),
(367,168,o),
(342,168,q),
(314,168,o),
(276,201,o),
(264,268,o),
(272,319,q),
(280,369,o),
(315,436,o),
(364,469,o),
(394,469,q),
(430,469,o),
(468,418,o),
(464,370,q),
(669,370,l),
(682,450,o),
(629,569,o),
(508,634,o),
(418,634,q),
(318,634,o),
(161,554,o),
(62,411,o),
(46,317,q),
(30,223,o),
(82,80,o),
(212,0,o),
(312,0,q),
(403,0,o)
);
}
);
width = 713;
},
{
layerId = "E47E1377-DCF2-49F5-8019-9A7312669877";
shapes = (
{
closed = 1;
nodes = (
(481,39,o),
(550,121,o),
(561,174,q),
(468,181,l),
(456,149,o),
(411,104,o),
(349,82,o),
(312,84,qs),
(257,88,o),
(179,153,o),
(140,261,o),
(145,332,qs),
(150,401,o),
(203,502,o),
(290,436,o),
(345,432,qs),
(408,428,o),
(477,475,o),
(485,432,q),
(579,426,l),
(575,483,o),
(515,574,o),
(415,630,o),
(350,634,qs),
(267,640,o),
(137,567,o),
(58,429,o),
(51,335,qs),
(45,243,o),
(102,96,o),
(221,6,o),
(306,0,qs),
(374,-5,o)
);
}
);
width = 629;
},
{
layerId = "2E32C3C1-CB0A-4F55-A80D-7437AACFC458";
shapes = (
{
closed = 1;
nodes = (
(499,46,o),
(562,125,o),
(570,173,q),
(476,173,l),
(467,144,o),
(425,100,o),
(365,77,o),
(328,77,qs),
(272,77,o),
(190,130,o),
(144,225,o),
(144,289,qs),
(144,352,o),
(190,446,o),
(273,497,o),
(328,497,qs),
(391,497,o),
(465,439,o),
(476,401,q),
(570,401,l),
(562,452,o),
(496,531,o),
(392,574,o),
(327,574,qs),
(244,574,o),
(119,500,o),
(50,371,o),
(50,286,qs),
(50,203,o),
(117,74,o),
(242,0,o),
(328,0,qs),
(396,0,o)
);
}
);
width = 620;
}
);
unicode = 99;
},
{
glyphname = d;
lastChange = "2023-04-21 17:42:07 +0000";
layers = (
{
layerId = m01;
shapes = (
{
closed = 1;
nodes = (
(271,163,o),
(307,208,o),
(317,238,q),
(319,238,l),
(319,182,l),
(334,182,l),
(334,333,o),
(334,486,o),
(334,638,c),
(319,638,l),
(319,565,o),
(319,493,o),
(319,420,c),
(317,420,l),
(307,452,o),
(271,496,o),
(221,521,o),
(192,521,q),
(149,521,o),
(85,470,o),
(50,384,o),
(50,329,q),
(50,275,o),
(85,189,o),
(148,138,o),
(192,138,q),
(221,138,o)
);
},
{
closed = 1;
nodes = (
(96,200,o),
(65,279,o),
(65,329,q),
(65,380,o),
(96,459,o),
(153,505,o),
(192,505,q),
(231,505,o),
(288,459,o),
(319,380,o),
(319,329,q),
(319,279,o),
(288,200,o),
(231,154,o),
(192,154,q),
(153,154,o)
);
}
);
width = 384;
},
{
layerId = "8BBC5D12-C2A2-42BE-94C4-42D1DE80799C";
shapes = (
{
closed = 1;
nodes = (
(353,20,o),
(409,69,o),
(427,100,q),
(431,100,l),
(415,-1,l),
(634,-1,l),
(688,316,o),
(731,575,o),
(785,892,c),
(564,892,l),
(538,745,o),
(523,654,o),
(497,507,c),
(494,507,l),
(487,538,o),
(449,590,o),
(386,622,o),
(340,622,q),
(279,622,o),
(159,557,o),
(67,418,o),
(48,307,q),
(31,200,o),
(73,60,o),
(172,-9,o),
(238,-9,q),
(281,-9,o)
);
},
{
closed = 1;
nodes = (
(225,209,o),
(212,290,o),
(220,348,q),
(230,404,o),
(272,485,o),
(333,529,o),
(370,529,q),
(409,529,o),
(457,485,o),
(473,404,o),
(463,348,q),
(454,292,o),
(410,210,o),
(349,165,o),
(310,165,q),
(273,165,o)
);
}
);
width = 806;
},
{
layerId = "E47E1377-DCF2-49F5-8019-9A7312669877";
shapes = (
{
closed = 1;
nodes = (
(405,17,o),
(450,61,o),
(463,77,q),
(474,75,l),
(461,-18,l),
(552,-30,l),
(588,241,o),
(623,511,o),
(659,782,c),
(566,794,l),
(553,694,o),
(539,595,o),
(526,495,c),
(518,496,l),
(510,513,o),
(480,568,o),
(415,616,o),
(356,624,qs),
(280,634,o),
(151,573,o),
(67,440,o),
(54,344,qs),
(42,248,o),
(88,97,o),
(195,4,o),
(271,-6,qs),
(330,-14,o)
);
},
{
closed = 1;
nodes = (
(172,358,o),
(251,285,o),
(308,277,qs),
(367,268,o),
(444,317,o),
(480,245,o),
(461,188,qs),
(446,144,o),
(398,105,o),
(334,88,o),
(277,94,qs),
(219,100,o),
(155,144,o),
(118,210,o),
(120,262,qs),
(122,309,o)
);
}
);
width = 709;
},
{
layerId = "2E32C3C1-CB0A-4F55-A80D-7437AACFC458";
shapes = (
{
closed = 1;
nodes = (
(443,21,o),
(481,66,o),
(492,81,q),
(503,81,l),
(503,-3,l),
(595,-3,l),
(606,234,o),
(591,489,o),
(558,735,c),
(464,735,l),
(482,649,o),
(492,547,o),
(496,462,c),
(488,462,l),
(478,477,o),
(440,522,o),
(369,556,o),
(310,556,qs),
(233,555,o),
(114,485,o),
(49,356,o),
(50,269,qs),
(51,181,o),
(118,52,o),
(237,-17,o),
(313,-17,qs),
(373,-16,o)
);
},
{
closed = 1;
nodes = (
(208,197,o),
(271,250,o),
(319,257,q),
(365,261,o),
(434,225,o),
(473,178,o),
(473,167,q),
(474,154,o),
(436,171,o),
(370,191,o),
(323,186,q),
(276,180,o),
(220,144,o),
(180,121,o),
(178,128,q),
(177,139,o)
);
}
);
width = 649;
}
);
unicode = 100;
},
{
glyphname = e;
lastChange = "2023-04-21 17:22:55 +0000";
layers = (
{
layerId = m01;
shapes = (
{
closed = 1;
nodes = (
(297,122,o),
(330,156,o),
(338,170,q),
(325,179,l),
(319,167,o),
(291,136,o),
(244,112,o),
(210,112,q),
(164,112,o),
(99,161,o),
(66,242,o),
(66,290,q),
(66,292,l),
(66,341,o),
(103,419,o),
(165,464,o),
(203,464,q),
(240,464,o),
(301,421,o),
(338,349,o),
(338,304,q),
(245,304,o),
(151,304,o),
(58,304,c),
(58,289,l),
(157,289,o),
(255,289,o),
(354,289,c),
(354,304,l),
(354,340,o),
(331,403,o),
(290,452,o),
(235,479,o),
(203,479,q),
(159,479,o),
(90,428,o),
(50,342,o),
(50,288,q),
(50,234,o),
(90,148,o),
(162,97,o),
(210,97,q),
(246,97,o)
);
}
);
width = 404;
},
{
layerId = "8BBC5D12-C2A2-42BE-94C4-42D1DE80799C";
shapes = (
{
closed = 1;
nodes = (
(532,52,o),
(625,146,o),
(647,210,q),
(445,210,l),
(436,192,o),
(404,168,o),
(364,155,o),
(341,155,q),
(308,155,o),
(267,182,o),
(250,228,o),
(255,258,q),
(279,386,l),
(284,414,o),
(318,455,o),
(365,479,o),
(392,479,q),
(420,479,o),
(458,456,o),
(476,415,o),
(472,389,q),
(357,389,o),
(242,389,o),
(127,389,c),
(108,267,l),
(291,267,o),
(473,267,o),
(656,267,c),
(664,319,l),
(676,392,o),
(653,508,o),
(586,591,o),
(481,634,o),
(412,634,q),
(316,634,o),
(163,555,o),
(63,412,o),
(47,317,q),
(30,218,o),
(83,76,o),
(212,0,o),
(311,0,q),
(396,0,o)
);
}
);
width = 710;
},
{
layerId = "E47E1377-DCF2-49F5-8019-9A7312669877";
shapes = (
{
closed = 1;
nodes = (
(460,16,o),
(538,76,o),
(559,120,q),
(472,158,l),
(456,128,o),
(406,91,o),
(343,79,o),
(306,84,qs),
(250,92,o),
(171,154,o),
(136,256,o),
(146,325,qs),
(154,379,ls),
(161,429,o),
(217,507,o),
(310,547,o),
(365,539,qs),
(417,532,o),
(489,478,o),
(517,410,o),
(509,374,q),
(454,297,o),
(133,353,o),
(187,483,c),
(118,345,l),
(240,261,o),
(358,215,o),
(588,269,c),
(592,289,ls),
(609,374,o),
(576,498,o),
(509,580,o),
(421,624,o),
(373,631,qs),
(291,643,o),
(157,579,o),
(68,446,o),
(55,353,qs),
(42,259,o),
(91,108,o),
(206,12,o),
(295,0,qs),
(356,-9,o)
);
}
);
width = 651;
},
{
layerId = "2E32C3C1-CB0A-4F55-A80D-7437AACFC458";
shapes = (
{
closed = 1;
nodes = (
(498,31,o),
(566,94,o),
(581,137,q),
(490,159,l),
(478,130,o),
(434,91,o),
(373,73,o),
(336,73,qs),
(279,73,o),
(192,118,o),
(144,205,o),
(144,267,qs),
(144,317,ls),
(144,362,o),
(188,420,o),
(270,465,o),
(326,465,qs),
(378,465,o),
(439,436,o),
(485,389,o),
(494,338,q),
(379,414,o),
(253,405,o),
(117,329,c),
(117,246,l),
(275,291,o),
(422,274,o),
(590,255,c),
(590,291,ls),
(590,369,o),
(545,475,o),
(468,540,o),
(374,569,o),
(326,569,qs),
(243,569,o),
(119,495,o),
(50,365,o),
(50,281,qs),
(50,195,o),
(119,67,o),
(247,-4,o),
(336,-4,qs),
(398,-4,o)
);
}
);
width = 640;
}
);
unicode = 101;
},
{
glyphname = f;
lastChange = "2023-04-21 17:31:22 +0000";
layers = (
{
layerId = m01;
shapes = (
{
closed = 1;
nodes = (
(50,525,l),
(99,525,o),
(98,525,o),
(147,525,c),
(147,540,l),
(98,540,o),
(99,540,o),
(50,540,c)
);
},
{
closed = 1;
nodes = (
(115,314,o),
(116,457,o),
(116,600,c),
(116,633,o),
(157,669,o),
(185,669,q),
(192,669,o),
(203,667,o),
(209,665,q),
(214,679,l),
(208,682,o),
(194,685,o),
(185,685,q),
(163,685,o),
(124,664,o),
(101,626,o),
(101,600,q),
(101,457,o),
(101,314,o),
(101,171,c),
(115,171,l)
);
}
);
width = 264;
},
{
layerId = "8BBC5D12-C2A2-42BE-94C4-42D1DE80799C";
shapes = (
{
closed = 1;
nodes = (
(40,455,l),
(177,455,o),
(315,455,o),
(452,455,c),
(479,615,l),
(342,615,o),
(205,615,o),
(68,615,c)
);
},
{
closed = 1;
nodes = (
(300,214,o),
(335,428,o),
(371,642,c),
(375,663,o),
(401,690,o),
(432,690,q),
(444,690,o),
(474,685,o),
(486,682,q),
(544,840,l),
(526,845,o),
(448,858,o),
(406,858,q),
(339,858,o),
(232,808,o),
(161,708,o),
(148,632,q),
(113,421,o),
(78,211,o),
(43,0,c),
(264,0,l)
);
}
);
width = 554;
},
{
layerId = "E47E1377-DCF2-49F5-8019-9A7312669877";
shapes = (
{
closed = 1;
nodes = (
(58,516,l),
(169,528,o),
(278,540,o),
(388,551,c),
(379,631,l),
(270,619,o),
(160,608,o),
(50,596,c)
);
},
{
closed = 1;
nodes = (
(284,229,o),
(261,454,o),
(237,678,cs),
(232,724,o),
(268,775,o),
(314,780,qs),
(334,782,o),
(360,777,o),
(368,775,q),
(386,860,l),
(375,863,o),
(330,870,o),
(295,866,qs),
(251,861,o),
(177,818,o),
(134,743,o),
(140,690,qs),
(165,458,o),
(189,226,o),
(213,-5,c),
(307,5,l)
);
}
);
width = 438;
},
{
layerId = "2E32C3C1-CB0A-4F55-A80D-7437AACFC458";
shapes = (
{
closed = 1;
nodes = (
(50,481,l),
(160,481,o),
(259,481,o),
(381,438,c),
(381,510,l),
(271,549,o),
(160,553,o),
(50,553,c)
);
},
{
closed = 1;
nodes = (
(228,196,o),
(212,320,o),
(244,609,cs),
(249,650,o),
(285,693,o),
(332,693,qs),
(352,693,o),
(377,686,o),
(385,684,q),
(412,757,l),
(401,762,o),
(357,772,o),
(322,772,qs),
(278,772,o),
(199,740,o),
(156,676,o),
(149,629,qs),
(119,419,o),
(122,249,o),
(149,0,c),
(244,0,l)
);
}
);
width = 462;
}
);
unicode = 102;
},
{
glyphname = g;
lastChange = "2023-04-21 17:22:55 +0000";
layers = (
{
layerId = m01;
shapes = (
{
closed = 1;
nodes = (
(301,-65,o),
(334,-3,o),
(334,42,q),
(334,156,o),
(334,270,o),
(334,384,c),
(319,384,l),
(319,324,l),
(317,324,l),
(307,355,o),
(271,400,o),
(222,424,o),
(192,424,q),
(148,424,o),
(85,374,o),
(50,288,o),
(50,233,q),
(50,179,o),
(85,96,o),
(149,50,o),
(192,50,q),
(220,50,o),
(269,70,o),
(307,111,o),
(317,142,q),
(319,142,l),
(319,42,l),
(319,-20,o),
(254,-81,o),
(197,-81,q),
(169,-81,o),
(122,-66,o),
(89,-38,o),
(80,-17,q),
(66,-22,l),
(76,-47,o),
(113,-80,o),
(166,-96,o),
(197,-96,q),
(239,-96,o)
);
},
{
closed = 1;
nodes = (
(96,108,o),
(65,183,o),
(65,233,q),
(65,283,o),
(96,363,o),
(153,409,o),
(192,409,q),
(231,409,o),
(288,363,o),
(319,283,o),
(319,233,q),
(319,181,o),
(287,106,o),
(230,65,o),
(192,65,q),
(153,65,o)
);
}
);
width = 384;
},
{
layerId = "8BBC5D12-C2A2-42BE-94C4-42D1DE80799C";
shapes = (
{
closed = 1;
nodes = (
(561,-194,o),
(659,-84,o),
(671,-6,q),
(705,198,o),
(740,403,o),
(774,607,c),
(553,607,l),
(535,500,l),
(531,500,l),
(523,531,o),
(486,583,o),
(423,615,o),
(377,615,q),
(316,615,o),
(195,550,o),
(103,411,o),
(84,300,q),
(67,193,o),
(111,61,o),
(211,0,o),
(276,0,q),
(318,0,o),
(391,23,o),
(448,67,o),
(465,98,q),
(471,98,l),
(454,-6,l),
(447,-60,o),
(383,-102,o),
(340,-102,q),
(315,-102,o),
(276,-92,o),
(255,-68,o),
(254,-48,q),
(41,-48,l),
(36,-107,o),
(94,-198,o),
(217,-251,o),
(310,-251,q),
(407,-251,o)
);
},
{
closed = 1;
nodes = (
(285,195,o),
(271,269,o),
(279,323,q),
(288,375,o),
(326,450,o),
(383,491,o),
(418,491,q),
(454,491,o),
(497,450,o),
(512,375,o),
(504,323,q),
(496,271,o),
(455,196,o),
(398,157,o),
(362,157,q),
(328,157,o)
);
}
);
width = 814;
},
{
layerId = "E47E1377-DCF2-49F5-8019-9A7312669877";
shapes = (
{
closed = 1;
nodes = (
(592,-174,o),
(648,-66,o),
(637,13,qs),
(608,222,o),
(578,430,o),
(549,639,c),
(459,626,l),
(473,529,l),
(463,528,l),
(451,542,o),
(406,586,o),
(330,616,o),
(271,608,qs),
(195,597,o),
(88,504,o),
(42,355,o),
(55,262,qs),
(68,167,o),
(155,43,o),
(281,-10,o),
(355,0,qs),
(415,9,o),
(479,56,o),
(510,110,o),
(518,128,q),
(526,129,l),
(543,6,ls),
(554,-71,o),
(468,-155,o),
(395,-166,qs),
(339,-174,o),
(268,-150,o),
(222,-113,o),
(208,-98,q),
(140,-161,l),
(164,-190,o),
(236,-237,o),
(338,-258,o),
(406,-248,qs),
(479,-238,o)
);
},
{
closed = 1;
nodes = (
(158,295,o),
(258,254,o),
(315,266,qs),
(374,278,o),
(428,352,o),
(494,288,o),
(490,236,qs),
(485,174,o),
(454,121,o),
(409,81,o),
(352,71,qs),
(294,60,o),
(219,88,o),
(161,137,o),
(144,187,qs),
(129,231,o)
);
}
);
width = 690;
},
{
layerId = "2E32C3C1-CB0A-4F55-A80D-7437AACFC458";
shapes = (
{
closed = 1;
nodes = (
(521,-216,o),
(578,-126,o),
(592,-55,qs),
(636,161,o),
(602,425,o),
(577,515,c),
(486,514,l),
(501,426,l),
(491,427,l),
(481,440,o),
(443,485,o),
(372,521,o),
(312,522,qs),
(235,521,o),
(117,452,o),
(50,325,o),
(50,240,qs),
(50,154,o),
(119,32,o),
(236,-31,o),
(311,-31,qs),
(371,-31,o),
(441,3,o),
(480,47,o),
(490,63,q),
(498,63,l),
(486,-49,ls),
(478,-125,o),
(401,-183,o),
(327,-184,qs),
(271,-184,o),
(204,-154,o),
(163,-116,o),
(152,-100,q),
(76,-148,l),
(95,-177,o),
(160,-227,o),
(258,-259,o),
(327,-259,qs),
(400,-259,o)
);
},
{
closed = 1;
nodes = (
(195,178,o),
(261,227,o),
(309,230,q),
(355,231,o),
(422,192,o),
(459,143,o),
(459,131,q),
(459,118,o),
(422,136,o),
(357,162,o),
(310,160,q),
(262,157,o),
(205,125,o),
(164,104,o),
(162,112,q),
(162,123,o)
);
}
);
width = 663;
}
);
unicode = 103;
},
{
glyphname = h;
lastChange = "2023-04-21 17:22:55 +0000";
layers = (
{
layerId = m01;
shapes = (
{
closed = 1;
nodes = (
(95,439,o),
(145,468,o),
(178,468,q),
(227,468,o),
(289,406,o),
(289,357,q),
(289,204,l),
(304,204,l),
(304,255,o),
(304,306,o),
(304,357,c),
(304,394,o),
(272,451,o),
(215,483,o),
(178,483,q),
(140,483,o),
(80,448,o),
(68,420,q),
(65,420,l),
(65,480,o),
(65,541,o),
(65,601,c),
(50,601,l),
(50,451,o),
(50,300,o),
(50,150,c),
(65,150,l),
(65,357,l),
(65,390,o)
);
}
);
width = 354;
},
{
layerId = "8BBC5D12-C2A2-42BE-94C4-42D1DE80799C";
shapes = (
{
closed = 1;
nodes = (
(352,420,o),
(397,444,o),
(424,444,q),
(466,444,o),
(503,392,o),
(496,346,q),
(438,0,l),
(659,0,l),
(681,131,o),
(703,261,o),
(725,392,c),
(736,460,o),
(700,564,o),
(613,623,o),
(549,623,q),
(480,623,o),
(372,557,o),
(342,498,q),
(336,498,l),
(354,605,o),
(371,713,o),
(389,820,c),
(176,820,l),
(131,547,o),
(85,273,o),
(40,0,c),
(261,0,l),
(318,346,l),
(323,376,o)
);
}
);
width = 769;
},
{
layerId = "E47E1377-DCF2-49F5-8019-9A7312669877";
shapes = (
{
closed = 1;
nodes = (
(218,504,o),
(305,424,o),
(352,421,qs),
(405,418,o),
(483,490,o),
(491,418,qs),
(531,36,l),
(625,45,l),
(611,175,o),
(597,304,o),
(583,434,cs),
(574,513,o),
(513,609,o),
(415,649,o),
(352,643,qs),
(279,635,o),
(199,569,o),
(182,521,q),
(174,520,l),
(163,620,o),
(153,719,o),
(142,819,c),
(50,809,l),
(78,537,o),
(107,266,o),
(135,-6,c),
(229,3,l),
(190,371,ls),
(184,425,o)
);
}
);
width = 675;
},
{
layerId = "2E32C3C1-CB0A-4F55-A80D-7437AACFC458";
shapes = (
{
closed = 1;
nodes = (
(188,452,o),
(261,487,o),
(308,487,qs),
(374,487,o),
(450,414,o),
(450,347,qs),
(450,-2,l),
(544,-2,l),
(544,116,o),
(544,235,o),
(544,353,cs),
(544,425,o),
(492,519,o),
(398,564,o),
(335,564,qs),
(262,564,o),
(176,513,o),
(154,470,q),
(146,470,l),
(146,539,o),
(158,652,o),
(187,743,c),
(93,743,l),
(38,487,o),
(52,246,o),
(52,-2,c),
(146,-2,l),
(146,334,ls),
(146,383,o)
);
}
);
width = 594;
}
);
unicode = 104;
},
{
glyphname = i;
lastChange = "2023-04-21 17:33:01 +0000";
layers = (
{
layerId = m01;
shapes = (
{
closed = 1;
nodes = (
(74,272,o),
(74,334,o),
(74,434,c),
(69,434,o),
(63,434,o),
(58,434,c),
(58,334,o),
(58,272,o),
(58,172,c),
(74,172,l)
);
},
{
closed = 1;
nodes = (
(81,510,o),
(81,516,q),
(81,523,o),
(72,532,o),
(66,532,q),
(60,532,o),
(50,523,o),
(50,516,q),
(50,510,o),
(60,501,o),
(66,501,q),
(72,501,o)
);
}
);
width = 131;
},
{
layerId = "8BBC5D12-C2A2-42BE-94C4-42D1DE80799C";
shapes = (
{
closed = 1;
nodes = (
(296,205,o),
(332,409,o),
(367,614,c),
(292,614,o),
(218,614,o),
(143,614,c),
(109,409,o),
(74,205,o),
(40,0,c),
(261,0,l)
);
},
{
closed = 1;
nodes = (
(381,738,o),
(388,779,q),
(394,821,o),
(341,880,o),
(296,880,q),
(251,880,o),
(177,821,o),
(170,779,q),
(163,738,o),
(218,678,o),
(263,678,q),
(308,678,o)
);
}
);
width = 429;
},
{
layerId = "E47E1377-DCF2-49F5-8019-9A7312669877";
shapes = (
{
closed = 1;
nodes = (
(162,202,o),
(179,406,o),
(197,610,c),
(170,629,o),
(141,631,o),
(104,618,c),
(86,414,o),
(68,210,o),
(50,6,c),
(144,-2,l)
);
},
{
closed = 1;
nodes = (
(231,747,o),
(233,773,qs),
(235,800,o),
(200,846,o),
(172,849,qs),
(144,851,o),
(102,812,o),
(99,785,qs),
(97,759,o),
(133,719,o),
(161,717,qs),
(188,714,o)
);
}
);
width = 283;
},
{
layerId = "2E32C3C1-CB0A-4F55-A80D-7437AACFC458";
shapes = (
{
closed = 1;
nodes = (
(149,149,o),
(138,369,o),
(167,553,c),
(133,544,o),
(104,544,o),
(73,553,c),
(41,366,o),
(44,170,o),
(73,0,c),
(167,0,l)
);
},
{
closed = 1;
nodes = (
(200,677,o),
(200,700,qs),
(200,724,o),
(161,763,o),
(133,763,qs),
(105,763,o),
(66,724,o),
(66,700,qs),
(66,677,o),
(105,643,o),
(133,643,qs),
(161,643,o)
);
}
);
width = 210;
}
);
unicode = 105;
},
{
glyphname = j;
lastChange = "2023-04-21 17:38:59 +0000";
layers = (
{
layerId = m01;
shapes = (
{
closed = 1;
nodes = (
(127,-3,o),
(85,-40,o),
(58,-40,q),
(56,-40,o),
(53,-40,o),
(52,-40,q),
(50,-54,l),
(53,-55,o),
(56,-55,o),
(58,-55,q),
(80,-55,o),
(119,-34,o),
(142,3,o),
(142,29,q),
(142,148,o),
(142,267,o),
(142,386,c),
(127,386,l),
(127,267,o),
(127,148,o),
(127,29,c)
);
},
{
closed = 1;
nodes = (
(150,461,o),
(150,468,q),
(150,474,o),
(141,483,o),
(135,483,q),
(128,483,o),
(119,474,o),
(119,468,q),
(119,461,o),
(128,453,o),
(135,453,q),
(141,453,o)
);
}
);
width = 200;
},
{
layerId = "8BBC5D12-C2A2-42BE-94C4-42D1DE80799C";
shapes = (
{
closed = 1;
nodes = (
(126,-62,o),
(93,-87,o),
(53,-87,q),
(47,-87,o),
(34,-86,o),
(28,-85,q),
(0,-249,l),
(12,-249,o),
(33,-250,o),
(43,-250,q),
(124,-250,o),
(252,-213,o),
(336,-121,o),
(349,-41,q),
(385,171,o),
(420,383,o),
(456,595,c),
(235,595,l),
(200,385,o),
(165,174,o),
(130,-36,c)
);
},
{
closed = 1;
nodes = (
(473,718,o),
(480,759,q),
(486,801,o),
(433,860,o),
(388,860,q),
(343,860,o),
(269,801,o),
(262,759,q),
(255,718,o),
(310,659,o),
(355,659,q),
(400,659,o)
);
}
);
width = 519;
},
{
layerId = "E47E1377-DCF2-49F5-8019-9A7312669877";
shapes = (
{
closed = 1;
nodes = (
(151,-206,o),
(111,-257,o),
(67,-257,qs),
(63,-257,o),
(55,-257,o),
(50,-257,q),
(50,-345,l),
(55,-345,o),
(64,-345,o),
(69,-345,qs),
(128,-345,o),
(206,-299,o),
(245,-216,o),
(245,-159,qs),
(245,61,o),
(245,280,o),
(245,500,c),
(151,500,l),
(151,280,o),
(151,61,o),
(151,-159,cs)
);
},
{
closed = 1;
nodes = (
(264,640,o),
(264,667,qs),
(264,693,o),
(225,731,o),
(197,731,qs),
(169,731,o),
(130,693,o),
(130,667,qs),
(130,640,o),
(169,603,o),
(197,603,qs),
(225,603,o)
);
}
);
width = 314;
},
{
layerId = "2E32C3C1-CB0A-4F55-A80D-7437AACFC458";
shapes = (
{
closed = 1;
nodes = (
(142,-220,o),
(111,-266,o),
(67,-266,qs),
(63,-266,o),
(55,-266,o),
(50,-266,q),
(50,-345,l),
(55,-345,o),
(64,-345,o),
(69,-345,qs),
(128,-345,o),
(206,-304,o),
(237,-229,o),
(245,-178,qs),
(277,20,o),
(276,250,o),
(245,415,c),
(151,415,l),
(182,259,o),
(189,0,o),
(151,-178,cs)
);
},
{
closed = 1;
nodes = (
(248,539,o),
(248,564,qs),
(248,587,o),
(209,621,o),
(181,621,qs),
(153,621,o),
(114,587,o),
(114,564,qs),
(114,539,o),
(153,506,o),
(181,506,qs),
(209,506,o)
);
}
);
width = 319;
}
);
unicode = 106;
},
{
glyphname = k;
lastChange = "2023-04-21 17:22:55 +0000";
layers = (
{
layerId = m01;
shapes = (
{
closed = 1;
nodes = (
(117,368,l),
(142,393,o),
(167,417,o),
(192,442,c),
(170,442,l),
(136,408,o),
(101,375,o),
(67,341,c),
(61,341,l),
(61,313,l),
(115,366,l)
);
},
{
closed = 1;
nodes = (
(65,328,o),
(65,492,o),
(65,656,c),
(50,656,l),
(50,492,o),
(50,328,o),
(50,164,c),
(65,164,l)
);
},
{
closed = 1;
nodes = (
(121,378,l),
(109,368,l),
(234,209,l),
(255,209,l)
);
}
);
width = 305;
},
{
layerId = "8BBC5D12-C2A2-42BE-94C4-42D1DE80799C";
shapes = (
{
closed = 1;
nodes = (
(466,293,l),
(567,400,o),
(667,508,o),
(768,615,c),
(520,615,l),
(459,546,o),
(397,477,o),
(336,408,c),
(307,408,l),
(262,146,l),
(403,293,l)
);
},
{
closed = 1;
nodes = (
(306,273,o),
(352,547,o),
(397,820,c),
(176,820,l),
(131,547,o),
(85,273,o),
(40,0,c),
(261,0,l)
);
},
{
closed = 1;
nodes = (
(490,400,l),
(318,244,l),
(419,0,l),
(672,0,l)
);
}
);
width = 808;
},
{
layerId = "E47E1377-DCF2-49F5-8019-9A7312669877";
shapes = (
{
closed = 1;
nodes = (
(290,322,l),
(385,412,o),
(430,479,o),
(475,607,c),
(385,607,l),
(322,469,o),
(250,402,o),
(189,348,c),
(163,348,l),
(176,224,l),
(274,301,l)
);
},
{
closed = 1;
nodes = (
(182,263,o),
(163,535,o),
(144,808,c),
(50,801,l),
(69,528,o),
(89,256,o),
(108,-17,c),
(201,-10,l)
);
},
{
closed = 1;
nodes = (
(298,367,l),
(236,297,l),
(497,10,l),
(616,19,l)
);
}
);
width = 666;
},
{
layerId = "2E32C3C1-CB0A-4F55-A80D-7437AACFC458";
shapes = (
{
closed = 1;
nodes = (
(252,293,l),
(325,362,o),
(368,399,o),
(471,468,c),
(395,500,l),
(291,436,o),
(214,371,o),
(146,307,c),
(133,307,l),
(135,202,l),
(244,293,l)
);
},
{
closed = 1;
nodes = (
(128,246,o),
(135,493,o),
(172,739,c),
(78,739,l),
(47,500,o),
(45,226,o),
(58,0,c),
(152,0,l)
);
},
{
closed = 1;
nodes = (
(264,334,l),
(197,274,l),
(437,0,l),
(557,0,l)
);
}
);
width = 607;
}
);
unicode = 107;
},
{
glyphname = l;
lastChange = "2023-04-21 17:26:24 +0000";
layers = (
{
layerId = m01;
shapes = (
{
closed = 1;
nodes = (
(50,493,o),
(50,329,o),
(50,165,c),
(66,165,l),
(66,329,o),
(66,493,o),
(66,657,c),
(50,657,l)
);
}
);
width = 116;
},
{
layerId = "8BBC5D12-C2A2-42BE-94C4-42D1DE80799C";
shapes = (
{
closed = 1;
nodes = (
(131,550,o),
(78,251,o),
(36,0,c),
(267,0,l),
(303,232,o),
(351,529,o),
(400,800,c),
(177,800,l)
);
}
);
width = 476;
},
{
layerId = "E47E1377-DCF2-49F5-8019-9A7312669877";
shapes = (
{
closed = 1;
nodes = (
(100,562,o),
(95,252,o),
(74,0,c),
(168,0,l),
(206,238,o),
(211,500,o),
(168,800,c),
(50,835,l)
);
}
);
width = 248;
},
{
layerId = "2E32C3C1-CB0A-4F55-A80D-7437AACFC458";
shapes = (
{
closed = 1;
nodes = (
(41,496,o),
(34,245,o),
(80,0,c),
(174,0,l),
(119,208,o),
(117,447,o),
(186,738,c),
(105,773,l)
);
}
);
width = 236;
}
);
unicode = 108;
},
{
glyphname = m;
lastChange = "2023-04-21 17:22:55 +0000";
layers = (
{
layerId = m01;
shapes = (
{
closed = 1;
nodes = (
(65,184,o),
(65,256,o),
(65,327,c),
(65,359,o),
(89,409,o),
(134,438,o),
(166,438,q),
(215,438,o),
(259,376,o),
(259,327,q),
(259,141,l),
(275,141,l),
(275,327,l),
(275,375,o),
(326,438,o),
(376,438,q),
(424,438,o),
(469,376,o),
(469,327,q),
(469,286,o),
(469,245,o),
(469,204,c),
(484,204,l),
(484,245,o),
(484,286,o),
(484,327,c),
(484,383,o),
(431,453,o),
(376,453,q),
(334,453,o),
(278,411,o),
(269,377,q),
(267,377,l),
(257,411,o),
(208,453,o),
(166,453,q),
(130,453,o),
(77,420,o),
(67,393,q),
(65,393,l),
(65,433,l),
(50,433,l),
(50,326,o),
(50,220,o),
(50,113,c),
(65,113,l)
);
}
);
width = 534;
},
{
layerId = "8BBC5D12-C2A2-42BE-94C4-42D1DE80799C";
shapes = (
{
closed = 1;
nodes = (
(280,119,o),
(301,239,o),
(321,358,c),
(325,385,o),
(349,424,o),
(385,445,o),
(408,445,q),
(442,445,o),
(476,399,o),
(470,358,q),
(409,0,l),
(620,0,l),
(681,358,l),
(687,399,o),
(734,445,o),
(768,445,q),
(802,445,o),
(836,399,o),
(830,358,q),
(810,239,o),
(789,119,o),
(769,0,c),
(990,0,l),
(1013,138,o),
(1036,276,o),
(1059,414,c),
(1075,509,o),
(983,622,o),
(896,622,q),
(827,622,o),
(714,554,o),
(689,497,q),
(683,497,l),
(682,554,o),
(600,622,o),
(536,622,q),
(471,622,o),
(367,555,o),
(339,497,q),
(332,497,l),
(352,614,l),
(142,614,l),
(108,409,o),
(74,205,o),
(40,0,c),
(260,0,l)
);
}
);
width = 1103;
},
{
layerId = "E47E1377-DCF2-49F5-8019-9A7312669877";
shapes = (
{
closed = 1;
nodes = (
(144,128,o),
(144,256,o),
(144,384,cs),
(144,429,o),
(183,498,o),
(254,444,o),
(290,444,qs),
(344,444,o),
(405,473,o),
(405,421,qs),
(405,0,l),
(501,0,l),
(501,400,ls),
(501,459,o),
(572,405,o),
(637,405,qs),
(687,405,o),
(762,479,o),
(762,411,qs),
(762,274,o),
(762,137,o),
(762,0,c),
(856,0,l),
(856,137,o),
(856,274,o),
(856,411,cs),
(856,519,o),
(751,622,o),
(669,622,qs),
(603,622,o),
(509,566,o),
(485,518,q),
(479,518,l),
(456,567,o),
(375,622,o),
(314,622,qs),
(254,622,o),
(168,567,o),
(149,518,q),
(141,518,l),
(141,614,l),
(50,614,l),
(50,409,o),
(50,205,o),
(50,0,c),
(144,0,l)
);
}
);
width = 906;
},
{
layerId = "2E32C3C1-CB0A-4F55-A80D-7437AACFC458";
shapes = (
{
closed = 1;
nodes = (
(152,108,o),
(136,222,o),
(147,350,cs),
(151,391,o),
(186,454,o),
(250,490,o),
(286,490,qs),
(340,490,o),
(408,431,o),
(408,384,qs),
(408,0,l),
(504,0,l),
(504,365,ls),
(504,418,o),
(575,490,o),
(640,490,qs),
(690,490,o),
(760,437,o),
(765,375,qs),
(775,240,o),
(760,125,o),
(743,0,c),
(837,0,l),
(855,125,o),
(868,237,o),
(859,375,cs),
(853,473,o),
(754,567,o),
(672,567,qs),
(606,567,o),
(512,516,o),
(488,472,q),
(482,472,l),
(459,517,o),
(378,567,o),
(317,567,qs),
(257,567,o),
(171,517,o),
(152,472,q),
(144,472,l),
(144,560,l),
(53,560,l),
(46,345,o),
(53,160,o),
(71,0,c),
(165,0,l)
);
}
);
width = 912;
}
);
unicode = 109;
},
{
glyphname = n;
lastChange = "2023-04-21 17:22:55 +0000";
layers = (
{
layerId = m01;
shapes = (
{
closed = 1;
nodes = (
(95,411,o),
(145,439,o),
(178,439,q),
(227,439,o),
(289,378,o),
(289,329,q),
(289,114,l),
(304,114,l),
(304,329,l),
(304,366,o),
(272,423,o),
(215,454,o),
(178,454,q),
(140,454,o),
(80,420,o),
(68,391,q),
(65,391,l),
(65,450,l),
(50,450,l),
(50,352,o),
(50,253,o),
(50,155,c),
(65,155,l),
(65,213,o),
(65,271,o),
(65,329,c),
(65,361,o)
);
}
);
width = 354;
},
{
layerId = "8BBC5D12-C2A2-42BE-94C4-42D1DE80799C";
shapes = (
{
closed = 1;
nodes = (
(353,419,o),
(397,443,o),
(424,443,q),
(466,443,o),
(504,391,o),
(496,345,q),
(438,0,l),
(659,0,l),
(725,392,l),
(736,459,o),
(700,563,o),
(614,622,o),
(549,622,q),
(481,622,o),
(368,556,o),
(339,497,q),
(333,497,l),
(352,614,l),
(142,614,l),
(108,409,o),
(74,205,o),
(40,0,c),
(261,0,l),
(280,115,o),
(299,230,o),
(318,345,c),
(324,376,o)
);
}
);
width = 769;
},
{
layerId = "E47E1377-DCF2-49F5-8019-9A7312669877";
shapes = (
{
closed = 1;
nodes = (
(185,498,o),
(259,428,o),
(313,423,qs),
(379,417,o),
(442,456,o),
(442,384,qs),
(442,0,l),
(536,0,l),
(536,390,ls),
(536,469,o),
(484,571,o),
(391,622,o),
(328,622,qs),
(259,622,o),
(171,565,o),
(149,518,q),
(141,518,l),
(141,614,l),
(50,614,l),
(50,409,o),
(50,205,o),
(50,0,c),
(144,0,l),
(144,123,o),
(144,246,o),
(144,369,cs),
(144,423,o)
);
}
);
width = 586;
},
{
layerId = "2E32C3C1-CB0A-4F55-A80D-7437AACFC458";
shapes = (
{
closed = 1;
nodes = (
(192,449,o),
(263,484,o),
(308,484,qs),
(374,484,o),
(449,411,o),
(449,346,qs),
(449,0,l),
(543,0,l),
(543,352,ls),
(543,423,o),
(491,515,o),
(398,561,o),
(335,561,qs),
(266,561,o),
(178,510,o),
(156,467,q),
(148,467,l),
(148,554,l),
(57,554,l),
(44,382,o),
(47,150,o),
(93,0,c),
(187,0,l),
(156,111,o),
(141,222,o),
(151,333,cs),
(155,382,o)
);
}
);
width = 593;
}
);
unicode = 110;
},
{
glyphname = o;
lastChange = "2023-04-21 17:22:55 +0000";
layers = (
{
layerId = m01;
shapes = (
{
closed = 1;
nodes = (
(315,152,o),
(355,239,o),
(355,293,q),
(355,347,o),
(314,433,o),
(245,484,o),
(202,484,q),
(159,484,o),
(89,434,o),
(50,348,o),
(50,293,q),
(50,239,o),
(89,152,o),
(159,102,o),
(202,102,q),
(245,102,o)
);
},
{
closed = 1;
nodes = (
(101,163,o),
(65,243,o),
(65,293,q),
(65,343,o),
(101,423,o),
(163,469,o),
(202,469,q),
(241,469,o),
(303,423,o),
(340,343,o),
(340,293,q),
(340,243,o),
(304,163,o),
(241,117,o),
(202,117,q),
(163,117,o)
);
}
);
width = 405;
},
{
layerId = "8BBC5D12-C2A2-42BE-94C4-42D1DE80799C";
shapes = (
{
closed = 1;
nodes = (
(567,80,o),
(667,223,o),
(682,317,q),
(698,411,o),
(646,554,o),
(516,634,o),
(417,634,q),
(316,634,o),
(160,554,o),
(61,411,o),
(46,317,q),
(30,223,o),
(82,80,o),
(211,0,o),
(311,0,q),
(411,0,o)
);
},
{
closed = 1;
nodes = (
(277,211,o),
(263,298,o),
(273,358,q),
(283,419,o),
(326,505,o),
(386,553,o),
(422,553,q),
(457,553,o),
(502,505,o),
(516,419,o),
(506,358,q),
(496,298,o),
(453,211,o),
(393,163,o),
(357,163,q),
(322,163,o)
);
}
);
width = 728;
},
{
layerId = "E47E1377-DCF2-49F5-8019-9A7312669877";
shapes = (
{
closed = 1;
nodes = (
(536,80,o),
(606,222,o),
(606,317,qs),
(606,413,o),
(536,556,o),
(411,636,o),
(328,636,qs),
(245,636,o),
(120,556,o),
(50,413,o),
(50,317,qs),
(50,222,o),
(120,80,o),
(245,0,o),
(328,0,qs),
(411,0,o)
);
},
{
closed = 1;
nodes = (
(190,347,o),
(283,293,o),
(341,297,qs),
(401,301,o),
(465,366,o),
(522,294,o),
(510,243,qs),
(497,188,o),
(460,140,o),
(406,104,o),
(349,102,qs),
(290,100,o),
(221,134,o),
(171,191,o),
(161,242,qs),
(152,288,o)
);
}
);
width = 656;
},
{
layerId = "2E32C3C1-CB0A-4F55-A80D-7437AACFC458";
shapes = (
{
closed = 1;
nodes = (
(536,72,o),
(606,200,o),
(606,286,qs),
(606,372,o),
(536,501,o),
(411,573,o),
(328,573,qs),
(245,573,o),
(120,501,o),
(50,372,o),
(50,286,qs),
(50,200,o),
(120,72,o),
(245,0,o),
(328,0,qs),
(411,0,o)
);
},
{
closed = 1;
nodes = (
(224,219,o),
(290,275,o),
(338,279,q),
(384,280,o),
(451,235,o),
(488,179,o),
(488,165,q),
(488,151,o),
(451,170,o),
(386,200,o),
(339,199,q),
(291,195,o),
(234,157,o),
(193,135,o),
(191,148,q),
(191,171,o)
);
}
);
width = 656;
}
);
unicode = 111;
},
{
glyphname = p;
lastChange = "2023-04-21 17:31:52 +0000";
layers = (
{
layerId = m01;
shapes = (
{
closed = 1;
nodes = (
(65,-6,o),
(65,70,o),
(65,147,c),
(67,147,l),
(77,117,o),
(113,72,o),
(163,47,o),
(192,47,q),
(235,47,o),
(299,97,o),
(334,184,o),
(334,238,q),
(334,293,o),
(299,379,o),
(236,429,o),
(192,429,q),
(163,429,o),
(113,405,o),
(77,360,o),
(67,330,q),
(65,330,l),
(65,389,l),
(50,389,l),
(50,232,o),
(50,74,o),
(50,-83,c),
(65,-83,l)
);
},
{
closed = 1;
nodes = (
(96,367,o),
(153,414,o),
(192,414,q),
(231,414,o),
(288,367,o),
(319,288,o),
(319,238,q),
(319,189,o),
(288,109,o),
(231,63,o),
(192,63,q),
(153,63,o),
(96,109,o),
(65,189,o),
(65,238,q),
(65,288,o)
);
}
);
width = 384;
},
{
layerId = "8BBC5D12-C2A2-42BE-94C4-42D1DE80799C";
shapes = (
{
closed = 1;
nodes = (
(255,-189,o),
(280,-44,o),
(304,102,c),
(308,102,l),
(316,71,o),
(354,21,o),
(417,-7,o),
(460,-7,q),
(526,-7,o),
(647,62,o),
(737,202,o),
(755,308,q),
(773,419,o),
(727,559,o),
(628,623,o),
(568,623,q),
(522,623,o),
(447,592,o),
(392,539,o),
(376,508,q),
(371,508,l),
(388,615,l),
(169,615,l),
(116,298,o),
(63,-18,o),
(10,-335,c),
(231,-335,l)
);
},
{
closed = 1;
nodes = (
(416,480,o),
(478,523,o),
(517,523,q),
(555,523,o),
(601,480,o),
(616,398,o),
(607,341,q),
(597,285,o),
(555,202,o),
(495,160,o),
(457,160,q),
(418,160,o),
(371,203,o),
(356,285,o),
(365,341,q),
(373,398,o)
);
}
);
width = 803;
},
{
layerId = "E47E1377-DCF2-49F5-8019-9A7312669877";
shapes = (
{
closed = 1;
nodes = (
(193,-123,o),
(185,-16,o),
(178,92,c),
(186,93,l),
(198,78,o),
(240,29,o),
(313,-6,o),
(372,-2,qs),
(449,3,o),
(561,89,o),
(618,236,o),
(611,333,qs),
(605,429,o),
(530,568,o),
(406,637,o),
(329,632,qs),
(269,628,o),
(202,584,o),
(168,532,o),
(159,515,q),
(148,514,l),
(141,611,l),
(50,605,l),
(69,324,o),
(87,44,o),
(106,-237,c),
(200,-231,l)
);
},
{
closed = 1;
nodes = (
(218,330,o),
(311,276,o),
(369,280,qs),
(429,284,o),
(493,349,o),
(536,282,o),
(528,226,qs),
(521,177,o),
(488,130,o),
(431,83,o),
(374,81,qs),
(315,79,o),
(249,117,o),
(199,174,o),
(189,225,qs),
(180,271,o)
);
}
);
width = 662;
},
{
layerId = "2E32C3C1-CB0A-4F55-A80D-7437AACFC458";
shapes = (
{
closed = 1;
nodes = (
(160,-114,o),
(150,-6,o),
(161,91,c),
(169,92,l),
(180,77,o),
(218,31,o),
(289,-5,o),
(348,-5,qs),
(425,-5,o),
(543,65,o),
(610,193,o),
(610,281,qs),
(610,367,o),
(545,497,o),
(426,567,o),
(349,567,qs),
(289,567,o),
(219,532,o),
(182,487,o),
(171,473,q),
(160,472,l),
(160,560,l),
(69,560,l),
(47,306,o),
(34,0,o),
(93,-200,c),
(187,-200,l)
);
},
{
closed = 1;
nodes = (
(219,253,o),
(294,292,o),
(343,284,q),
(391,277,o),
(456,224,o),
(490,164,o),
(488,151,q),
(487,137,o),
(450,164,o),
(386,203,o),
(337,211,q),
(286,218,o),
(223,194,o),
(178,180,o),
(177,189,q),
(178,201,o)
);
}
);
width = 660;
}
);
unicode = 112;
},
{
glyphname = q;
lastChange = "2023-04-21 17:22:55 +0000";
layers = (
{
layerId = m01;
shapes = (
{
closed = 1;
nodes = (
(334,85,o),
(334,243,o),
(334,401,c),
(319,401,l),
(319,340,l),
(317,340,l),
(307,370,o),
(271,415,o),
(222,439,o),
(192,439,q),
(149,439,o),
(85,389,o),
(50,303,o),
(50,248,q),
(50,194,o),
(85,107,o),
(149,57,o),
(192,57,q),
(221,57,o),
(271,82,o),
(307,127,o),
(317,157,q),
(319,157,l),
(319,80,o),
(319,4,o),
(319,-73,c),
(334,-73,l)
);
},
{
closed = 1;
nodes = (
(96,119,o),
(65,199,o),
(65,248,q),
(65,298,o),
(96,377,o),
(153,424,o),
(192,424,q),
(231,424,o),
(288,377,o),
(319,298,o),
(319,248,q),
(319,199,o),
(288,119,o),
(231,73,o),
(192,73,q),
(153,73,o)
);
}
);
width = 384;
},
{
layerId = "8BBC5D12-C2A2-42BE-94C4-42D1DE80799C";
shapes = (
{
closed = 1;
nodes = (
(631,-23,o),
(683,293,o),
(736,610,c),
(517,610,l),
(498,503,l),
(494,503,l),
(487,534,o),
(449,587,o),
(386,618,o),
(340,618,q),
(279,618,o),
(159,554,o),
(66,414,o),
(48,303,q),
(30,197,o),
(74,57,o),
(172,-12,o),
(238,-12,q),
(281,-12,o),
(353,16,o),
(409,66,o),
(426,97,q),
(430,97,l),
(406,-49,o),
(381,-194,o),
(357,-340,c),
(578,-340,l)
);
},
{
closed = 1;
nodes = (
(215,203,o),
(200,286,o),
(209,342,q),
(219,399,o),
(260,481,o),
(321,524,o),
(359,524,q),
(398,524,o),
(445,481,o),
(460,399,o),
(451,342,q),
(443,286,o),
(399,204,o),
(338,161,o),
(299,161,q),
(261,161,o)
);
}
);
width = 776;
},
{
layerId = "E47E1377-DCF2-49F5-8019-9A7312669877";
shapes = (
{
closed = 1;
nodes = (
(564,27,o),
(595,306,o),
(625,586,c),
(534,597,l),
(524,500,l),
(513,502,l),
(504,518,o),
(472,572,o),
(407,619,o),
(348,625,qs),
(271,633,o),
(145,570,o),
(64,435,o),
(53,339,qs),
(42,241,o),
(93,92,o),
(201,2,o),
(278,-7,qs),
(337,-13,o),
(412,19,o),
(455,65,o),
(467,81,q),
(475,80,l),
(463,-27,o),
(452,-135,o),
(440,-242,c),
(534,-253,l)
);
},
{
closed = 1;
nodes = (
(170,358,o),
(249,285,o),
(306,277,qs),
(365,268,o),
(442,317,o),
(478,245,o),
(459,188,qs),
(444,144,o),
(396,105,o),
(332,88,o),
(275,94,qs),
(217,100,o),
(153,144,o),
(116,210,o),
(118,262,qs),
(120,309,o)
);
}
);
width = 675;
},
{
layerId = "2E32C3C1-CB0A-4F55-A80D-7437AACFC458";
shapes = (
{
closed = 1;
nodes = (
(593,32,o),
(608,283,o),
(593,538,c),
(501,539,l),
(502,451,l),
(490,452,l),
(480,466,o),
(442,511,o),
(373,547,o),
(314,547,qs),
(236,547,o),
(117,478,o),
(51,349,o),
(50,263,qs),
(49,174,o),
(116,45,o),
(232,-26,o),
(310,-27,qs),
(369,-27,o),
(440,10,o),
(478,55,o),
(489,70,q),
(497,70,l),
(501,-27,o),
(486,-125,o),
(464,-222,c),
(558,-223,l)
);
},
{
closed = 1;
nodes = (
(200,183,o),
(266,227,o),
(314,230,q),
(360,231,o),
(427,196,o),
(464,151,o),
(464,141,q),
(464,129,o),
(427,145,o),
(362,168,o),
(315,167,q),
(267,165,o),
(210,134,o),
(169,116,o),
(167,123,q),
(167,133,o)
);
}
);
width = 649;
}
);
unicode = 113;
},
{
glyphname = r;
lastChange = "2023-04-21 17:39:54 +0000";
layers = (
{
layerId = m01;
shapes = (
{
closed = 1;
nodes = (
(66,375,l),
(66,407,o),
(95,457,o),
(146,485,o),
(178,485,q),
(181,485,o),
(183,485,o),
(186,485,q),
(186,500,l),
(183,500,o),
(181,500,o),
(178,500,q),
(140,500,o),
(81,466,o),
(68,437,q),
(66,437,l),
(66,474,l),
(50,474,l),
(50,127,l),
(66,127,l)
);
}
);
width = 236;
},
{
layerId = "8BBC5D12-C2A2-42BE-94C4-42D1DE80799C";
shapes = (
{
closed = 1;
nodes = (
(313,320,l),
(320,355,o),
(359,407,o),
(414,437,o),
(446,437,q),
(464,437,o),
(511,431,o),
(526,425,q),
(558,614,l),
(545,618,o),
(518,622,o),
(504,622,q),
(455,622,o),
(371,562,o),
(344,497,q),
(337,497,l),
(357,614,l),
(142,614,l),
(40,0,l),
(261,0,l)
);
}
);
width = 598;
},
{
layerId = "E47E1377-DCF2-49F5-8019-9A7312669877";
shapes = (
{
closed = 1;
nodes = (
(153,395,ls),
(158,436,o),
(204,497,o),
(278,526,o),
(323,522,qs),
(341,520,o),
(375,511,o),
(379,509,q),
(390,604,l),
(382,606,o),
(350,610,o),
(340,611,qs),
(285,617,o),
(192,570,o),
(170,527,q),
(164,527,l),
(174,619,l),
(82,628,l),
(18,18,l),
(113,8,l)
);
}
);
width = 408;
},
{
layerId = "2E32C3C1-CB0A-4F55-A80D-7437AACFC458";
shapes = (
{
closed = 1;
nodes = (
(145,351,ls),
(145,388,o),
(185,448,o),
(255,481,o),
(300,481,qs),
(319,481,o),
(353,476,o),
(358,475,q),
(358,561,l),
(350,562,o),
(318,563,o),
(308,563,qs),
(253,563,o),
(165,512,o),
(148,471,q),
(142,471,l),
(142,554,l),
(50,554,l),
(50,0,l),
(145,0,l)
);
}
);
width = 378;
}
);
unicode = 114;
},
{
glyphname = s;
lastChange = "2023-04-21 17:22:55 +0000";
layers = (
{
layerId = m01;
shapes = (
{
closed = 1;
nodes = (
(221,509,o),
(178,509,q),
(145,509,o),
(93,485,o),
(64,441,o),
(64,412,q),
(64,377,o),
(107,329,o),
(150,319,q),
(208,305,l),
(243,296,o),
(279,256,o),
(279,228,q),
(279,190,o),
(219,142,o),
(171,142,q),
(127,142,o),
(74,184,o),
(65,223,q),
(50,219,l),
(59,175,o),
(122,127,o),
(171,127,q),
(208,127,o),
(263,152,o),
(294,198,o),
(294,228,q),
(294,262,o),
(252,310,o),
(212,320,q),
(154,334,l),
(116,344,o),
(79,383,o),
(79,412,q),
(79,449,o),
(134,494,o),
(178,494,q),
(203,494,o),
(242,478,o),
(268,446,o),
(276,422,q),
(291,425,l),
(278,467,o)
);
}
);
width = 344;
},
{
layerId = "8BBC5D12-C2A2-42BE-94C4-42D1DE80799C";
shapes = (
{
closed = 1;
nodes = (
(532,634,o),
(394,634,q),
(310,634,o),
(181,591,o),
(102,508,o),
(92,447,q),
(79,370,o),
(162,271,o),
(253,255,q),
(359,235,l),
(394,229,o),
(419,215,o),
(418,202,q),
(415,179,o),
(362,148,o),
(327,149,q),
(295,150,o),
(256,180,o),
(255,210,q),
(41,210,l),
(34,116,o),
(179,0,o),
(324,0,q),
(406,0,o),
(543,49,o),
(631,139,o),
(642,202,q),
(654,274,o),
(570,363,o),
(479,379,q),
(357,402,l),
(323,409,o),
(307,425,o),
(309,434,q),
(313,457,o),
(366,487,o),
(399,487,q),
(418,487,o),
(448,472,o),
(465,445,o),
(463,426,q),
(661,426,l),
(674,523,o)
);
}
);
width = 703;
},
{
layerId = "E47E1377-DCF2-49F5-8019-9A7312669877";
shapes = (
{
closed = 1;
nodes = (
(364,642,o),
(273,636,qs),
(208,631,o),
(109,578,o),
(56,494,o),
(60,442,qs),
(64,378,o),
(149,300,o),
(235,286,qs),
(339,269,ls),
(385,262,o),
(433,222,o),
(435,190,qs),
(440,127,o),
(355,180,o),
(302,177,qs),
(249,173,o),
(179,87,o),
(150,173,q),
(62,144,l),
(84,67,o),
(212,-6,o),
(306,0,qs),
(377,5,o),
(481,61,o),
(536,149,o),
(533,201,qs),
(528,266,o),
(442,342,o),
(359,356,qs),
(265,371,ls),
(210,381,o),
(157,419,o),
(154,454,qs),
(151,493,o),
(223,550,o),
(279,554,qs),
(319,557,o),
(374,534,o),
(408,496,o),
(417,475,q),
(500,505,l),
(474,569,o)
);
}
);
width = 574;
},
{
layerId = "2E32C3C1-CB0A-4F55-A80D-7437AACFC458";
shapes = (
{
closed = 1;
nodes = (
(386,573,o),
(295,573,qs),
(230,573,o),
(128,532,o),
(69,459,o),
(69,413,qs),
(69,355,o),
(148,279,o),
(233,261,qs),
(335,240,ls),
(381,230,o),
(426,191,o),
(426,162,qs),
(426,126,o),
(348,76,o),
(282,76,qs),
(224,76,o),
(153,120,o),
(140,165,q),
(50,144,l),
(67,74,o),
(190,0,o),
(284,0,qs),
(355,0,o),
(463,43,o),
(524,119,o),
(524,166,qs),
(524,224,o),
(443,298,o),
(361,316,qs),
(269,336,ls),
(215,349,o),
(164,386,o),
(164,417,qs),
(164,452,o),
(239,499,o),
(295,499,qs),
(336,499,o),
(389,476,o),
(420,439,o),
(428,420,q),
(513,441,l),
(491,501,o)
);
}
);
width = 574;
}
);
unicode = 115;
},
{
glyphname = t;
lastChange = "2023-04-21 17:22:55 +0000";
layers = (
{
layerId = m01;
shapes = (
{
closed = 1;
nodes = (
(50,490,l),
(151,490,l),
(151,505,l),
(50,505,l)
);
},
{
closed = 1;
nodes = (
(104,189,o),
(127,151,o),
(166,130,o),
(188,130,q),
(197,130,o),
(211,133,o),
(218,136,q),
(213,150,l),
(207,148,o),
(195,145,o),
(188,145,q),
(170,145,o),
(138,162,o),
(119,193,o),
(119,214,q),
(119,594,l),
(104,594,l),
(104,214,l)
);
}
);
width = 268;
},
{
layerId = "8BBC5D12-C2A2-42BE-94C4-42D1DE80799C";
shapes = (
{
closed = 1;
nodes = (
(40,444,l),
(445,444,l),
(472,604,l),
(67,604,l)
);
},
{
closed = 1;
nodes = (
(61,102,o),
(98,17,o),
(195,-23,o),
(273,-20,q),
(310,-18,o),
(366,-5,o),
(383,0,q),
(377,155,l),
(370,154,o),
(342,148,o),
(332,148,q),
(318,148,o),
(300,157,o),
(295,174,o),
(297,187,q),
(390,751,l),
(170,751,l),
(73,166,l)
);
}
);
width = 512;
},
{
layerId = "E47E1377-DCF2-49F5-8019-9A7312669877";
shapes = (
{
closed = 1;
nodes = (
(35,525,l),
(352,558,l),
(344,638,l),
(26,604,l)
);
},
{
closed = 1;
nodes = (
(173,99,o),
(230,34,o),
(309,7,o),
(349,12,qs),
(376,15,o),
(409,26,o),
(418,30,q),
(391,113,l),
(385,111,o),
(365,105,o),
(349,103,qs),
(329,101,o),
(290,111,o),
(262,147,o),
(258,187,qs),
(197,770,l),
(103,760,l),
(167,152,ls)
);
}
);
width = 430;
},
{
layerId = "2E32C3C1-CB0A-4F55-A80D-7437AACFC458";
shapes = (
{
closed = 1;
nodes = (
(50,489,l),
(369,489,l),
(369,561,l),
(50,561,l)
);
},
{
closed = 1;
nodes = (
(143,94,o),
(193,31,o),
(269,0,o),
(309,0,qs),
(336,0,o),
(370,7,o),
(380,10,q),
(361,86,l),
(355,85,o),
(335,82,o),
(319,82,qs),
(298,82,o),
(261,94,o),
(237,130,o),
(237,166,qs),
(237,693,l),
(143,693,l),
(143,143,ls)
);
}
);
width = 430;
}
);
unicode = 116;
},
{
glyphname = u;
lastChange = "2023-04-21 17:22:55 +0000";
layers = (
{
layerId = m01;
shapes = (
{
closed = 1;
nodes = (
(259,160,o),
(209,131,o),
(176,131,q),
(127,131,o),
(65,193,o),
(65,242,q),
(65,305,o),
(65,368,o),
(65,431,c),
(50,431,l),
(50,368,o),
(50,305,o),
(50,242,c),
(50,205,o),
(82,148,o),
(139,116,o),
(176,116,q),
(214,116,o),
(274,151,o),
(286,179,q),
(289,179,l),
(289,121,l),
(304,121,l),
(304,490,l),
(289,490,l),
(289,242,l),
(289,210,o)
);
}
);
width = 354;
},
{
layerId = "8BBC5D12-C2A2-42BE-94C4-42D1DE80799C";
shapes = (
{
closed = 1;
nodes = (
(416,195,o),
(372,171,o),
(344,171,q),
(303,171,o),
(266,223,o),
(272,269,q),
(291,384,o),
(311,499,o),
(330,614,c),
(109,614,l),
(87,483,o),
(66,353,o),
(44,222,c),
(33,155,o),
(69,51,o),
(155,-8,o),
(220,-8,q),
(288,-8,o),
(401,58,o),
(429,117,q),
(436,117,l),
(416,0,l),
(626,0,l),
(728,614,l),
(508,614,l),
(450,269,l),
(446,238,o)
);
}
);
width = 768;
},
{
layerId = "E47E1377-DCF2-49F5-8019-9A7312669877";
shapes = (
{
closed = 1;
nodes = (
(374,123,o),
(307,181,o),
(265,187,qs),
(218,193,o),
(134,160,o),
(140,241,qs),
(149,369,o),
(158,496,o),
(167,624,c),
(72,630,l),
(63,500,o),
(54,371,o),
(45,241,cs),
(39,162,o),
(83,57,o),
(169,0,o),
(227,-4,qs),
(296,-9,o),
(391,50,o),
(417,95,q),
(423,94,l),
(415,-9,l),
(510,-16,l),
(553,597,l),
(458,603,l),
(433,241,ls),
(429,183,o)
);
}
);
width = 582;
},
{
layerId = "2E32C3C1-CB0A-4F55-A80D-7437AACFC458";
shapes = (
{
closed = 1;
nodes = (
(387,106,o),
(314,74,o),
(279,74,qs),
(220,74,o),
(150,146,o),
(145,206,qs),
(135,321,o),
(140,452,o),
(116,552,c),
(3,521,l),
(60,452,o),
(50,311,o),
(50,201,cs),
(50,130,o),
(101,38,o),
(191,-8,o),
(249,-8,qs),
(318,-8,o),
(409,51,o),
(431,93,q),
(437,93,l),
(437,-1,l),
(532,-1,l),
(532,552,l),
(437,552,l),
(437,225,ls),
(437,173,o)
);
}
);
width = 582;
}
);
unicode = 117;
},
{
glyphname = v;
lastChange = "2023-04-21 17:33:25 +0000";
layers = (
{
layerId = m01;
shapes = (
{
closed = 1;
nodes = (
(261,329,o),
(235,258,o),
(194,142,c),
(191,142,l),
(67,491,l),
(50,491,l),
(182,123,l),
(203,123,l),
(247,246,o),
(275,323,o),
(319,446,c),
(302,446,l)
);
}
);
width = 369;
},
{
layerId = "8BBC5D12-C2A2-42BE-94C4-42D1DE80799C";
shapes = (
{
closed = 1;
nodes = (
(413,479,o),
(357,343,o),
(302,208,c),
(296,208,l),
(264,614,l),
(40,614,l),
(144,0,l),
(400,0,l),
(503,205,o),
(605,409,o),
(708,614,c),
(468,614,l)
);
}
);
width = 718;
},
{
layerId = "E47E1377-DCF2-49F5-8019-9A7312669877";
shapes = (
{
closed = 1;
nodes = (
(475,512,o),
(428,264,o),
(361,127,c),
(355,127,l),
(170,638,l),
(50,596,l),
(319,-1,l),
(415,6,l),
(519,228,o),
(584,484,o),
(594,701,c),
(480,675,l)
);
}
);
width = 644;
},
{
layerId = "2E32C3C1-CB0A-4F55-A80D-7437AACFC458";
shapes = (
{
closed = 1;
nodes = (
(365,400,o),
(313,260,o),
(288,113,c),
(282,113,l),
(112,553,l),
(10,553,l),
(237,0,l),
(333,0,l),
(397,240,o),
(442,340,o),
(574,462,c),
(471,547,l)
);
}
);
width = 584;
}
);
unicode = 118;
},
{
glyphname = w;
lastChange = "2023-04-21 17:22:55 +0000";
layers = (
{
layerId = m01;
shapes = (
{
closed = 1;
nodes = (
(267,462,l),
(269,462,l),
(370,123,l),
(391,123,l),
(427,246,o),
(438,281,o),
(474,404,c),
(458,404,l),
(424,288,o),
(416,260,o),
(382,144,c),
(380,144,l),
(276,491,l),
(260,491,l),
(157,144,l),
(155,144,l),
(120,260,o),
(100,331,o),
(66,447,c),
(50,447,l),
(86,324,o),
(109,246,o),
(145,123,c),
(166,123,l)
);
}
);
width = 524;
},
{
layerId = "8BBC5D12-C2A2-42BE-94C4-42D1DE80799C";
shapes = (
{
closed = 1;
nodes = (
(471,329,l),
(477,329,l),
(509,0,l),
(748,0,l),
(833,205,o),
(919,409,o),
(1004,614,c),
(783,614,l),
(740,490,o),
(696,367,o),
(653,243,c),
(648,243,l),
(629,614,l),
(415,614,l),
(274,240,l),
(269,240,l),
(266,365,o),
(264,489,o),
(261,614,c),
(40,614,l),
(57,409,o),
(75,205,o),
(92,0,c),
(330,0,l)
);
}
);
width = 1044;
},
{
layerId = "E47E1377-DCF2-49F5-8019-9A7312669877";
shapes = (
{
closed = 1;
nodes = (
(467,487,l),
(477,487,l),
(578,6,l),
(671,0,l),
(764,229,o),
(824,394,o),
(879,547,c),
(791,569,l),
(733,418,o),
(692,292,o),
(636,148,c),
(630,148,l),
(533,625,l),
(432,647,l),
(269,172,l),
(263,173,l),
(193,323,o),
(152,553,o),
(163,700,c),
(52,741,l),
(35,557,o),
(107,241,o),
(208,32,c),
(301,26,l)
);
}
);
width = 929;
},
{
layerId = "2E32C3C1-CB0A-4F55-A80D-7437AACFC458";
shapes = (
{
closed = 1;
nodes = (
(464,429,l),
(474,429,l),
(608,0,l),
(701,0,l),
(766,198,o),
(844,416,o),
(926,485,c),
(825,528,l),
(725,404,o),
(683,274,o),
(656,132,c),
(650,132,l),
(520,558,l),
(419,558,l),
(288,131,l),
(282,131,l),
(238,274,o),
(193,416,o),
(149,558,c),
(50,558,l),
(112,372,o),
(175,186,o),
(237,0,c),
(330,0,l)
);
}
);
width = 976;
}
);
unicode = 119;
},
{
glyphname = x;
lastChange = "2023-04-21 17:30:52 +0000";
layers = (
{
layerId = m01;
shapes = (
{
closed = 1;
nodes = (
(90,430,o),
(129,368,o),
(168,307,c),
(81,171,l),
(99,171,l),
(177,293,l),
(213,236,o),
(249,180,o),
(285,123,c),
(303,123,l),
(264,184,o),
(225,246,o),
(186,307,c),
(225,368,o),
(264,430,o),
(303,491,c),
(285,491,l),
(249,434,o),
(213,378,o),
(177,321,c),
(141,378,o),
(105,434,o),
(68,491,c),
(50,491,l)
);
}
);
width = 353;
},
{
layerId = "8BBC5D12-C2A2-42BE-94C4-42D1DE80799C";
shapes = (
{
closed = 1;
nodes = (
(171,512,o),
(209,409,o),
(246,307,c),
(20,0,l),
(241,0,l),
(374,195,l),
(396,130,o),
(417,65,o),
(439,0,c),
(657,0,l),
(617,102,o),
(576,205,o),
(536,307,c),
(610,409,o),
(684,512,o),
(758,614,c),
(539,614,l),
(497,551,o),
(454,487,o),
(412,424,c),
(393,487,o),
(374,551,o),
(355,614,c),
(134,614,l)
);
}
);
width = 798;
},
{
layerId = "E47E1377-DCF2-49F5-8019-9A7312669877";
shapes = (
{
closed = 1;
nodes = (
(130,565,o),
(199,427,o),
(276,338,c),
(50,53,l),
(158,42,l),
(329,263,l),
(370,179,o),
(410,95,o),
(451,11,c),
(559,0,l),
(504,109,o),
(449,217,o),
(394,326,c),
(470,421,o),
(547,516,o),
(623,611,c),
(515,622,l),
(457,544,o),
(400,466,o),
(342,388,c),
(284,467,o),
(217,569,o),
(198,673,c),
(107,700,l)
);
}
);
width = 673;
},
{
layerId = "2E32C3C1-CB0A-4F55-A80D-7437AACFC458";
shapes = (
{
closed = 1;
nodes = (
(115,508,o),
(180,405,o),
(245,303,c),
(50,-4,l),
(159,-4,l),
(306,234,l),
(355,155,o),
(404,75,o),
(453,-4,c),
(562,-4,l),
(496,98,o),
(430,201,o),
(364,303,c),
(430,405,o),
(453,475,o),
(570,526,c),
(501,589,l),
(395,526,o),
(355,443,o),
(306,359,c),
(257,443,o),
(208,526,o),
(159,610,c),
(50,610,l)
);
}
);
width = 620;
}
);
unicode = 120;
},
{
glyphname = y;
lastChange = "2023-04-21 17:42:33 +0000";
layers = (
{
layerId = m01;
shapes = (
{
closed = 1;
nodes = (
(147,-26,o),
(171,6,o),
(179,29,q),
(305,381,l),
(289,381,l),
(193,115,l),
(191,115,l),
(149,231,o),
(108,348,o),
(66,464,c),
(50,464,l),
(95,339,o),
(139,214,o),
(184,89,c),
(165,35,l),
(155,7,o),
(125,-24,o),
(86,-30,o),
(62,-19,q),
(57,-33,l),
(67,-37,o),
(88,-42,o),
(97,-42,q),
(115,-42,o)
);
}
);
width = 355;
},
{
layerId = "8BBC5D12-C2A2-42BE-94C4-42D1DE80799C";
shapes = (
{
closed = 1;
nodes = (
(328,-156,o),
(404,-75,o),
(430,-24,q),
(764,612,l),
(524,612,l),
(352,216,l),
(346,216,l),
(337,358,o),
(327,470,o),
(318,612,c),
(95,612,l),
(132,398,o),
(168,214,o),
(205,0,c),
(198,-11,l),
(187,-28,o),
(153,-40,o),
(110,-35,o),
(84,-25,q),
(10,-182,l),
(35,-192,o),
(101,-203,o),
(139,-203,q),
(217,-203,o)
);
}
);
width = 774;
},
{
layerId = "E47E1377-DCF2-49F5-8019-9A7312669877";
shapes = (
{
closed = 1;
nodes = (
(231,-195,o),
(286,-140,o),
(306,-99,qs),
(612,530,l),
(510,537,l),
(309,99,l),
(303,100,l),
(192,254,o),
(165,407,o),
(165,561,c),
(70,610,l),
(70,359,o),
(138,175,o),
(261,20,c),
(229,-57,ls),
(211,-101,o),
(166,-135,o),
(112,-136,o),
(79,-125,q),
(50,-200,l),
(56,-204,o),
(94,-213,o),
(118,-215,qs),
(160,-218,o)
);
}
);
width = 662;
},
{
layerId = "2E32C3C1-CB0A-4F55-A80D-7437AACFC458";
shapes = (
{
closed = 1;
nodes = (
(280,-201,o),
(332,-144,o),
(349,-102,qs),
(610,532,l),
(508,532,l),
(338,91,l),
(332,91,l),
(286,246,o),
(228,356,o),
(152,463,c),
(50,463,l),
(169,291,o),
(228,162,o),
(287,-24,c),
(269,-67,ls),
(251,-109,o),
(211,-147,o),
(158,-152,o),
(124,-143,q),
(100,-218,l),
(107,-222,o),
(145,-228,o),
(169,-228,qs),
(211,-228,o)
);
}
);
width = 660;
}
);
unicode = 121;
},
{
glyphname = z;
lastChange = "2023-04-21 17:22:55 +0000";
layers = (
{
layerId = m01;
shapes = (
{
closed = 1;
nodes = (
(239,138,l),
(182,138,o),
(126,138,o),
(69,138,c),
(69,140,l),
(290,476,l),
(290,491,l),
(215,491,o),
(140,491,o),
(65,491,c),
(65,476,l),
(134,476,o),
(202,476,o),
(271,476,c),
(271,474,l),
(50,138,l),
(50,123,l),
(113,123,o),
(176,123,o),
(239,123,c)
);
}
);
width = 340;
},
{
layerId = "8BBC5D12-C2A2-42BE-94C4-42D1DE80799C";
shapes = (
{
closed = 1;
nodes = (
(608,168,l),
(523,168,o),
(439,168,o),
(354,168,c),
(355,171,l),
(651,480,l),
(672,614,l),
(499,614,o),
(325,614,o),
(152,614,c),
(123,446,l),
(209,446,o),
(296,446,o),
(382,446,c),
(381,443,l),
(59,121,l),
(40,0,l),
(220,0,o),
(401,0,o),
(581,0,c)
);
}
);
width = 712;
},
{
layerId = "E47E1377-DCF2-49F5-8019-9A7312669877";
shapes = (
{
closed = 1;
nodes = (
(532,125,l),
(415,125,o),
(298,88,o),
(181,88,c),
(181,94,l),
(521,539,l),
(521,614,l),
(368,614,o),
(181,629,o),
(64,657,c),
(64,569,l),
(152,550,o),
(286,526,o),
(399,526,c),
(399,520,l),
(50,72,l),
(50,0,l),
(220,-19,o),
(371,37,o),
(532,37,c)
);
}
);
width = 582;
},
{
layerId = "2E32C3C1-CB0A-4F55-A80D-7437AACFC458";
shapes = (
{
closed = 1;
nodes = (
(532,21,l),
(431,54,o),
(306,79,o),
(181,79,c),
(181,85,l),
(521,486,l),
(521,553,l),
(368,553,o),
(191,540,o),
(61,500,c),
(61,421,l),
(191,459,o),
(286,474,o),
(399,474,c),
(399,469,l),
(50,65,l),
(50,0,l),
(215,1,o),
(356,-7,o),
(532,-58,c)
);
}
);
width = 582;
}
);
unicode = 122;
},
{
glyphname = zero;
lastChange = "2023-04-21 17:22:55 +0000";
layers = (
{
layerId = m01;
shapes = (
{
closed = 1;
nodes = (
(315,204,o),
(352,317,o),
(352,395,q),
(352,473,o),
(315,586,o),
(248,648,o),
(201,648,q),
(154,648,o),
(87,586,o),
(50,473,o),
(50,395,q),
(50,317,o),
(87,204,o),
(154,142,o),
(201,142,q),
(248,142,o)
);
},
{
closed = 1;
nodes = (
(98,215,o),
(65,321,o),
(65,395,q),
(65,506,o),
(138,632,o),
(201,632,q),
(243,632,o),
(304,575,o),
(337,469,o),
(337,395,q),
(337,284,o),
(264,158,o),
(201,158,q),
(159,158,o)
);
}
);
width = 402;
},
{
layerId = "8BBC5D12-C2A2-42BE-94C4-42D1DE80799C";
shapes = (
{
closed = 1;
nodes = (
(631,102,o),
(751,295,o),
(773,430,q),
(796,566,o),
(739,754,o),
(593,852,o),
(482,852,q),
(371,852,o),
(193,754,o),
(73,565,o),
(50,430,q),
(27,295,o),
(83,102,o),
(229,0,o),
(341,0,q),
(452,0,o)
);
},
{
closed = 1;
nodes = (
(300,301,o),
(280,419,o),
(298,511,q),
(325,646,o),
(443,771,o),
(515,771,q),
(564,771,o),
(627,717,o),
(646,601,o),
(628,511,q),
(600,373,o),
(485,244,o),
(413,244,q),
(364,244,o)
);
}
);
width = 823;
},
{
layerId = "E47E1377-DCF2-49F5-8019-9A7312669877";
shapes = (
{
closed = 1;
nodes = (
(560,85,o),
(640,267,o),
(649,401,qs),
(659,534,o),
(604,726,o),
(484,835,o),
(394,841,qs),
(305,847,o),
(171,756,o),
(90,574,o),
(81,441,qs),
(71,307,o),
(125,115,o),
(246,7,o),
(336,1,qs),
(425,-5,o)
);
},
{
closed = 1;
nodes = (
(204,168,o),
(178,244,o),
(171,299,qs),
(163,362,o),
(284,247,o),
(359,241,qs),
(417,236,o),
(502,277,o),
(564,329,o),
(556,288,qs),
(539,200,o),
(424,83,o),
(342,89,qs),
(274,94,o)
);
}
);
width = 730;
},
{
layerId = "2E32C3C1-CB0A-4F55-A80D-7437AACFC458";
shapes = (
{
closed = 1;
nodes = (
(583,89,o),
(650,258,o),
(650,379,qs),
(650,499,o),
(582,668,o),
(455,758,o),
(365,758,qs),
(275,758,o),
(148,668,o),
(80,499,o),
(80,379,qs),
(80,258,o),
(147,89,o),
(275,0,o),
(365,0,qs),
(455,0,o)
);
},
{
closed = 1;
nodes = (
(206,443,o),
(165,460,o),
(171,500,qs),
(184,584,o),
(276,680,o),
(365,680,qs),
(424,680,o),
(509,609,o),
(545,534,o),
(545,492,qs),
(545,422,o),
(435,584,o),
(365,584,qs),
(305,584,o)
);
}
);
width = 730;
}
);
unicode = 48;
},
{
glyphname = one;
lastChange = "2023-04-21 17:22:55 +0000";
layers = (
{
layerId = m01;
shapes = (
{
closed = 1;
nodes = (
(50,606,l),
(50,588,l),
(129,639,l),
(132,639,l),
(132,213,l),
(147,213,l),
(147,656,l),
(126,656,l)
);
}
);
width = 197;
},
{
layerId = "8BBC5D12-C2A2-42BE-94C4-42D1DE80799C";
shapes = (
{
closed = 1;
nodes = (
(71,696,l),
(40,508,l),
(237,615,l),
(242,615,l),
(139,0,l),
(362,0,l),
(498,820,l),
(293,820,l)
);
}
);
width = 538;
},
{
layerId = "E47E1377-DCF2-49F5-8019-9A7312669877";
shapes = (
{
closed = 1;
nodes = (
(61,673,l),
(68,572,l),
(259,719,l),
(264,719,l),
(314,5,l),
(412,12,l),
(355,830,l),
(256,823,l)
);
}
);
width = 464;
},
{
layerId = "2E32C3C1-CB0A-4F55-A80D-7437AACFC458";
shapes = (
{
closed = 1;
nodes = (
(80,616,l),
(80,525,l),
(280,645,l),
(285,645,l),
(285,0,l),
(384,0,l),
(384,738,l),
(285,738,l)
);
}
);
width = 464;
}
);
unicode = 49;
},
{
glyphname = two;
lastChange = "2023-04-21 17:22:55 +0000";
layers = (
{
layerId = m01;
shapes = (
{
closed = 1;
nodes = (
(245,179,l),
(74,179,l),
(74,181,l),
(219,353,l),
(257,398,o),
(300,459,o),
(318,508,o),
(318,535,q),
(318,572,o),
(284,629,o),
(226,662,o),
(190,662,q),
(151,662,o),
(92,627,o),
(59,568,o),
(59,532,q),
(74,532,l),
(74,564,o),
(104,616,o),
(155,647,o),
(190,647,q),
(222,647,o),
(273,618,o),
(303,568,o),
(303,535,q),
(303,511,o),
(286,465,o),
(245,406,o),
(208,363,q),
(50,177,l),
(50,164,l),
(245,164,l)
);
}
);
width = 368;
},
{
layerId = "8BBC5D12-C2A2-42BE-94C4-42D1DE80799C";
shapes = (
{
closed = 1;
nodes = (
(698,177,l),
(378,177,l),
(379,182,l),
(466,246,l),
(573,324,o),
(693,437,o),
(748,530,o),
(756,577,q),
(769,654,o),
(709,767,o),
(574,830,o),
(476,830,q),
(381,830,o),
(228,763,o),
(130,638,o),
(115,552,q),
(326,552,l),
(332,586,o),
(366,634,o),
(417,659,o),
(448,659,q),
(478,659,o),
(522,635,o),
(541,590,o),
(536,558,q),
(531,529,o),
(500,482,o),
(449,438,o),
(414,413,q),
(66,160,l),
(40,0,l),
(669,0,l)
);
}
);
width = 800;
},
{
layerId = "E47E1377-DCF2-49F5-8019-9A7312669877";
shapes = (
{
closed = 1;
nodes = (
(573,70,l),
(194,97,l),
(194,103,l),
(391,287,ls),
(466,357,o),
(554,457,o),
(592,540,o),
(595,585,qs),
(599,648,o),
(543,755,o),
(437,824,o),
(365,829,qs),
(293,834,o),
(174,781,o),
(101,678,o),
(96,606,q),
(190,599,l),
(193,645,o),
(236,712,o),
(306,644,o),
(353,640,qs),
(398,637,o),
(468,700,o),
(505,635,o),
(502,592,qs),
(499,554,o),
(465,488,o),
(398,415,o),
(347,367,qs),
(57,90,l),
(52,19,l),
(567,-17,l)
);
}
);
width = 676;
},
{
layerId = "2E32C3C1-CB0A-4F55-A80D-7437AACFC458";
shapes = (
{
closed = 1;
nodes = (
(596,79,l),
(216,79,l),
(216,85,l),
(400,262,ls),
(470,331,o),
(550,425,o),
(582,503,o),
(582,543,qs),
(582,600,o),
(519,693,o),
(408,748,o),
(336,748,qs),
(264,748,o),
(149,693,o),
(83,595,o),
(83,530,q),
(177,530,l),
(177,572,o),
(215,635,o),
(285,670,o),
(332,670,qs),
(377,670,o),
(448,639,o),
(489,582,o),
(489,543,qs),
(489,509,o),
(459,448,o),
(398,378,o),
(350,331,qs),
(80,65,l),
(80,0,l),
(596,0,l)
);
}
);
width = 676;
}
);
unicode = 50;
},
{
glyphname = three;
lastChange = "2023-04-21 17:22:55 +0000";
layers = (
{
layerId = m01;
shapes = (
{
closed = 1;
nodes = (
(305,199,o),
(342,260,o),
(342,298,q),
(342,344,o),
(285,411,o),
(236,424,q),
(236,425,l),
(278,437,o),
(327,499,o),
(327,542,q),
(327,578,o),
(293,635,o),
(234,668,o),
(195,668,q),
(156,668,o),
(96,635,o),
(73,600,o),
(66,573,q),
(82,573,l),
(86,591,o),
(107,624,o),
(161,653,o),
(195,653,q),
(230,653,o),
(282,624,o),
(312,574,o),
(312,542,q),
(312,508,o),
(278,458,o),
(219,431,o),
(182,431,q),
(182,432,l),
(182,416,l),
(182,416,l),
(224,416,o),
(289,386,o),
(327,333,o),
(327,298,q),
(327,265,o),
(294,211,o),
(235,179,o),
(196,179,q),
(159,179,o),
(100,208,o),
(65,260,o),
(65,293,q),
(50,293,l),
(50,256,o),
(89,197,o),
(155,163,o),
(196,163,q),
(239,163,o)
);
}
);
width = 392;
},
{
layerId = "8BBC5D12-C2A2-42BE-94C4-42D1DE80799C";
shapes = (
{
closed = 1;
nodes = (
(598,62,o),
(701,168,o),
(712,235,q),
(724,314,o),
(629,422,o),
(542,432,q),
(542,439,l),
(622,445,o),
(728,520,o),
(740,592,q),
(752,659,o),
(690,773,o),
(559,842,o),
(465,842,q),
(376,842,o),
(225,776,o),
(126,661,o),
(113,586,q),
(324,586,l),
(328,611,o),
(366,649,o),
(423,671,o),
(454,671,q),
(482,671,o),
(517,653,o),
(531,621,o),
(528,600,q),
(523,573,o),
(486,529,o),
(429,504,o),
(395,504,q),
(316,504,l),
(291,351,l),
(379,351,l),
(413,351,o),
(463,335,o),
(489,303,o),
(484,277,q),
(480,252,o),
(445,207,o),
(389,179,o),
(355,179,q),
(326,179,o),
(282,200,o),
(261,237,o),
(265,261,q),
(44,261,l),
(31,185,o),
(99,67,o),
(242,0,o),
(342,0,q),
(439,0,o)
);
}
);
width = 783;
},
{
layerId = "E47E1377-DCF2-49F5-8019-9A7312669877";
shapes = (
{
closed = 1;
nodes = (
(588,76,o),
(653,187,o),
(648,254,qs),
(643,331,o),
(548,431,o),
(470,439,q),
(470,445,l),
(530,468,o),
(595,570,o),
(590,640,qs),
(586,697,o),
(521,793,o),
(408,846,o),
(333,841,qs),
(262,836,o),
(148,773,o),
(82,671,o),
(84,607,q),
(180,614,l),
(179,655,o),
(222,716,o),
(295,751,o),
(337,754,qs),
(383,757,o),
(451,728,o),
(492,669,o),
(495,628,qs),
(498,585,o),
(460,518,o),
(389,478,o),
(340,474,qs),
(275,469,l),
(282,381,l),
(346,386,ls),
(409,391,o),
(498,357,o),
(547,292,o),
(551,247,qs),
(554,204,o),
(524,155,o),
(433,202,o),
(380,199,qs),
(333,195,o),
(241,125,o),
(201,165,o),
(196,204,q),
(95,197,l),
(103,133,o),
(182,42,o),
(310,-5,o),
(388,1,qs),
(467,6,o)
);
}
);
width = 716;
},
{
layerId = "2E32C3C1-CB0A-4F55-A80D-7437AACFC458";
shapes = (
{
closed = 1;
nodes = (
(563,55,o),
(636,150,o),
(636,210,qs),
(636,280,o),
(548,375,o),
(471,386,q),
(471,392,l),
(533,409,o),
(605,496,o),
(605,559,qs),
(605,611,o),
(547,700,o),
(438,755,o),
(362,755,qs),
(291,755,o),
(173,706,o),
(100,619,o),
(98,561,q),
(194,561,l),
(196,598,o),
(243,650,o),
(318,677,o),
(360,677,qs),
(406,677,o),
(472,647,o),
(509,591,o),
(509,554,qs),
(509,516,o),
(467,458,o),
(393,426,o),
(344,426,qs),
(279,426,l),
(279,347,l),
(344,347,ls),
(407,347,o),
(493,312,o),
(538,250,o),
(538,210,qs),
(538,171,o),
(492,112,o),
(410,79,o),
(357,79,qs),
(310,79,o),
(232,107,o),
(184,159,o),
(181,194,q),
(80,194,l),
(84,136,o),
(156,49,o),
(280,0,o),
(359,0,qs),
(438,0,o)
);
}
);
width = 716;
}
);
unicode = 51;
},
{
glyphname = four;
lastChange = "2023-04-21 17:22:55 +0000";
layers = (
{
layerId = m01;
shapes = (
{
closed = 1;
nodes = (
(313,295,l),
(72,295,l),
(72,297,l),
(274,624,l),
(285,624,l),
(285,656,l),
(275,656,l),
(50,291,l),
(50,279,l),
(313,279,l)
);
},
{
closed = 1;
nodes = (
(291,656,l),
(275,656,l),
(275,289,l),
(275,284,l),
(275,198,l),
(291,198,l)
);
}
);
width = 363;
},
{
layerId = "8BBC5D12-C2A2-42BE-94C4-42D1DE80799C";
shapes = (
{
closed = 1;
nodes = (
(774,301,l),
(220,304,l),
(221,311,l),
(539,700,l),
(603,589,l),
(641,820,l),
(485,820,l),
(69,301,l),
(40,128,l),
(745,128,l)
);
},
{
closed = 1;
nodes = (
(766,820,l),
(558,820,l),
(465,256,l),
(448,181,l),
(417,0,l),
(630,0,l)
);
}
);
width = 814;
},
{
layerId = "E47E1377-DCF2-49F5-8019-9A7312669877";
shapes = (
{
closed = 1;
nodes = (
(661,235,l),
(177,269,l),
(177,276,l),
(479,686,l),
(519,683,l),
(527,810,l),
(469,814,l),
(70,271,l),
(64,189,l),
(655,148,l)
);
},
{
closed = 1;
nodes = (
(588,806,l),
(495,812,l),
(453,225,l),
(451,187,l),
(437,-6,l),
(531,-12,l)
);
}
);
width = 752;
},
{
layerId = "2E32C3C1-CB0A-4F55-A80D-7437AACFC458";
shapes = (
{
closed = 1;
nodes = (
(672,230,l),
(187,230,l),
(187,237,l),
(459,623,l),
(499,623,l),
(499,738,l),
(440,738,l),
(80,225,l),
(80,151,l),
(672,151,l)
);
},
{
closed = 1;
nodes = (
(560,738,l),
(466,738,l),
(466,208,l),
(466,174,l),
(466,0,l),
(560,0,l)
);
}
);
width = 752;
}
);
unicode = 52;
},
{
glyphname = five;
lastChange = "2023-04-21 17:22:55 +0000";
layers = (
{
layerId = m01;
shapes = (
{
closed = 1;
nodes = (
(288,207,o),
(326,279,o),
(326,325,q),
(326,373,o),
(285,444,o),
(219,483,o),
(179,483,q),
(150,483,o),
(101,462,o),
(82,445,q),
(80,445,l),
(105,649,l),
(250,649,l),
(250,664,l),
(92,664,l),
(63,432,l),
(86,428,l),
(103,445,o),
(150,467,o),
(179,467,q),
(215,467,o),
(274,433,o),
(311,369,o),
(311,325,q),
(311,284,o),
(278,219,o),
(219,181,o),
(180,181,q),
(129,181,o),
(66,245,o),
(66,296,q),
(50,296,l),
(50,258,o),
(83,199,o),
(142,166,o),
(180,166,q),
(222,166,o)
);
}
);
width = 376;
},
{
layerId = "8BBC5D12-C2A2-42BE-94C4-42D1DE80799C";
shapes = (
{
closed = 1;
nodes = (
(586,75,o),
(689,207,o),
(702,293,q),
(715,370,o),
(669,490,o),
(566,558,o),
(492,558,q),
(430,558,o),
(328,509,o),
(302,472,q),
(297,472,l),
(344,653,l),
(712,653,l),
(740,830,l),
(190,830,l),
(83,379,l),
(272,341,l),
(291,371,o),
(356,405,o),
(392,405,q),
(426,405,o),
(473,375,o),
(494,322,o),
(488,286,q),
(482,250,o),
(443,197,o),
(386,168,o),
(352,168,q),
(308,168,o),
(253,219,o),
(259,261,q),
(43,261,l),
(31,185,o),
(95,67,o),
(230,0,o),
(324,0,q),
(425,0,o)
);
}
);
width = 780;
},
{
layerId = "E47E1377-DCF2-49F5-8019-9A7312669877";
shapes = (
{
closed = 1;
nodes = (
(558,85,o),
(619,212,o),
(613,290,qs),
(608,369,o),
(532,488,o),
(410,552,o),
(335,547,qs),
(293,544,o),
(219,512,o),
(195,491,q),
(190,490,l),
(203,733,l),
(545,757,l),
(539,845,l),
(114,815,l),
(92,409,l),
(185,405,l),
(210,425,o),
(287,454,o),
(325,456,qs),
(377,459,o),
(462,416,o),
(514,336,o),
(518,282,qs),
(521,230,o),
(487,169,o),
(410,229,o),
(349,225,qs),
(287,220,o),
(199,149,o),
(190,205,q),
(95,198,l),
(102,135,o),
(177,43,o),
(293,-5,o),
(363,0,qs),
(441,6,o)
);
}
);
width = 684;
},
{
layerId = "2E32C3C1-CB0A-4F55-A80D-7437AACFC458";
shapes = (
{
closed = 1;
nodes = (
(534,64,o),
(604,174,o),
(604,245,qs),
(604,316,o),
(537,428,o),
(419,492,o),
(344,492,qs),
(302,492,o),
(226,469,o),
(201,451,q),
(196,451,l),
(225,668,l),
(568,668,l),
(568,747,l),
(142,747,l),
(92,384,l),
(185,374,l),
(211,391,o),
(290,412,o),
(328,411,qs),
(380,411,o),
(462,367,o),
(508,292,o),
(508,243,qs),
(508,196,o),
(463,122,o),
(384,79,o),
(334,79,qs),
(271,79,o),
(181,144,o),
(176,194,q),
(80,194,l),
(83,138,o),
(151,50,o),
(264,0,o),
(334,0,qs),
(412,0,o)
);
}
);
width = 684;
}
);
unicode = 53;
},
{
glyphname = six;
lastChange = "2023-04-21 17:22:55 +0000";
layers = (
{
layerId = m01;
shapes = (
{
closed = 1;
nodes = (
(299,211,o),
(334,281,o),
(334,322,q),
(334,366,o),
(296,435,o),
(232,476,o),
(193,476,q),
(164,476,o),
(113,454,o),
(75,416,o),
(67,391,q),
(65,391,l),
(65,521,o),
(133,658,o),
(200,658,q),
(235,658,o),
(293,628,o),
(300,588,q),
(317,588,l),
(317,603,o),
(292,648,o),
(237,674,o),
(200,674,q),
(156,674,o),
(98,626,o),
(64,545,o),
(50,447,o),
(50,398,q),
(50,340,o),
(72,254,o),
(112,197,o),
(164,168,o),
(196,168,q),
(237,168,o)
);
},
{
closed = 1;
nodes = (
(116,213,o),
(81,272,o),
(73,315,q),
(68,344,o),
(82,396,o),
(116,437,o),
(164,461,o),
(192,461,q),
(227,461,o),
(285,423,o),
(319,361,o),
(319,322,q),
(319,284,o),
(287,221,o),
(232,184,o),
(196,184,q),
(166,184,o)
);
}
);
width = 384;
},
{
layerId = "8BBC5D12-C2A2-42BE-94C4-42D1DE80799C";
shapes = (
{
closed = 1;
nodes = (
(593,70,o),
(695,196,o),
(709,282,q),
(722,359,o),
(678,482,o),
(574,552,o),
(498,552,q),
(453,552,o),
(367,526,o),
(297,475,o),
(275,437,q),
(269,426,l),
(288,525,o),
(381,653,o),
(453,653,q),
(475,653,o),
(520,634,o),
(533,615,q),
(749,615,l),
(733,686,o),
(667,785,o),
(559,842,o),
(467,842,q),
(389,842,o),
(251,785,o),
(141,675,o),
(66,521,o),
(50,423,q),
(31,309,o),
(62,149,o),
(147,47,o),
(271,0,o),
(344,0,q),
(438,0,o)
);
},
{
closed = 1;
nodes = (
(308,167,o),
(282,227,o),
(289,270,qs),
(294,305,o),
(329,365,o),
(380,409,o),
(442,435,o),
(475,435,qs),
(517,435,o),
(572,400,o),
(596,338,o),
(590,298,qs),
(583,251,o),
(530,176,o),
(450,133,o),
(403,133,qs),
(364,133,o)
);
}
);
width = 789;
},
{
layerId = "E47E1377-DCF2-49F5-8019-9A7312669877";
shapes = (
{
closed = 1;
nodes = (
(545,59,o),
(622,180,o),
(627,256,qs),
(633,336,o),
(571,462,o),
(460,540,o),
(390,545,qs),
(348,548,o),
(270,527,o),
(205,484,o),
(181,452,q),
(175,452,l),
(185,601,o),
(305,759,o),
(400,752,qs),
(465,747,o),
(539,669,o),
(548,613,q),
(646,606,l),
(640,670,o),
(579,772,o),
(475,835,o),
(406,840,qs),
(338,845,o),
(224,792,o),
(139,682,o),
(86,517,o),
(78,409,qs),
(71,295,o),
(110,142,o),
(187,49,o),
(285,5,o),
(336,1,qs),
(417,-6,o)
);
},
{
closed = 1;
nodes = (
(214,149,o),
(174,237,o),
(177,286,qs),
(179,308,o),
(198,333,o),
(241,298,o),
(316,229,o),
(353,227,qs),
(403,223,o),
(494,288,o),
(542,283,o),
(539,253,qs),
(533,201,o),
(475,130,o),
(392,85,o),
(342,88,qs),
(290,92,o)
);
}
);
width = 718;
},
{
layerId = "2E32C3C1-CB0A-4F55-A80D-7437AACFC458";
shapes = (
{
closed = 1;
nodes = (
(570,66,o),
(638,179,o),
(638,247,qs),
(638,319,o),
(568,429,o),
(451,492,o),
(381,492,qs),
(339,492,o),
(263,469,o),
(201,426,o),
(179,395,q),
(173,395,l),
(173,529,o),
(282,679,o),
(377,679,qs),
(442,679,o),
(521,613,o),
(534,563,q),
(632,563,l),
(622,620,o),
(554,708,o),
(446,758,o),
(377,758,qs),
(308,758,o),
(198,704,o),
(121,599,o),
(80,448,o),
(80,350,qs),
(80,247,o),
(130,112,o),
(213,34,o),
(314,1,o),
(365,0,qs),
(447,-1,o)
);
},
{
closed = 1;
nodes = (
(233,260,o),
(187,202,o),
(187,247,qs),
(187,280,o),
(215,339,o),
(264,386,o),
(330,413,o),
(368,413,qs),
(418,413,o),
(497,369,o),
(533,321,o),
(542,293,qs),
(556,249,o),
(476,293,o),
(415,326,o),
(365,326,qs),
(313,326,o)
);
}
);
width = 718;
}
);
unicode = 54;
},
{
glyphname = seven;
lastChange = "2023-04-21 17:22:55 +0000";
layers = (
{
layerId = m01;
shapes = (
{
closed = 1;
nodes = (
(301,644,l),
(301,660,l),
(89,660,l),
(89,644,l),
(282,644,l),
(282,643,l),
(50,168,l),
(67,168,l)
);
}
);
width = 351;
},
{
layerId = "8BBC5D12-C2A2-42BE-94C4-42D1DE80799C";
shapes = (
{
closed = 1;
nodes = (
(699,642,l),
(728,820,l),
(120,820,l),
(91,642,l),
(469,642,l),
(467,637,l),
(40,0,l),
(269,0,l)
);
}
);
width = 768;
},
{
layerId = "E47E1377-DCF2-49F5-8019-9A7312669877";
shapes = (
{
closed = 1;
nodes = (
(581,745,l),
(575,838,l),
(52,801,l),
(58,713,l),
(479,743,l),
(480,736,l),
(165,-13,l),
(269,-6,l)
);
}
);
width = 684;
},
{
layerId = "2E32C3C1-CB0A-4F55-A80D-7437AACFC458";
shapes = (
{
closed = 1;
nodes = (
(604,654,l),
(604,738,l),
(80,738,l),
(80,658,l),
(502,658,l),
(502,652,l),
(136,0,l),
(240,0,l)
);
}
);
width = 684;
}
);
unicode = 55;
},
{
glyphname = eight;
lastChange = "2023-04-21 17:22:55 +0000";
layers = (
{
layerId = m01;
shapes = (
{
closed = 1;
nodes = (
(314,204,o),
(355,265,o),
(355,302,q),
(355,331,o),
(329,384,o),
(282,422,o),
(252,429,q),
(252,431,l),
(290,444,o),
(339,509,o),
(339,549,q),
(339,584,o),
(302,641,o),
(240,674,o),
(203,674,q),
(165,674,o),
(103,640,o),
(67,584,o),
(67,549,q),
(67,508,o),
(116,444,o),
(154,431,q),
(154,429,l),
(124,422,o),
(77,384,o),
(50,331,o),
(50,302,q),
(50,265,o),
(91,204,o),
(161,168,o),
(203,168,q),
(245,168,o)
);
},
{
closed = 1;
nodes = (
(102,216,o),
(65,270,o),
(65,303,q),
(65,336,o),
(102,390,o),
(164,422,o),
(203,422,q),
(241,422,o),
(304,390,o),
(340,336,o),
(340,303,q),
(340,270,o),
(304,216,o),
(241,184,o),
(203,184,q),
(164,184,o)
);
},
{
closed = 1;
nodes = (
(115,467,o),
(82,518,o),
(82,549,q),
(82,579,o),
(115,629,o),
(170,658,o),
(203,658,q),
(236,658,o),
(291,629,o),
(324,579,o),
(324,549,q),
(324,518,o),
(291,467,o),
(236,435,o),
(203,435,q),
(170,435,o)
);
}
);
width = 405;
},
{
layerId = "8BBC5D12-C2A2-42BE-94C4-42D1DE80799C";
shapes = (
{
closed = 1;
nodes = (
(614,62,o),
(720,168,o),
(731,234,q),
(740,285,o),
(703,369,o),
(626,424,o),
(574,432,q),
(574,439,l),
(647,451,o),
(754,551,o),
(765,619,q),
(775,683,o),
(710,784,o),
(578,842,o),
(488,842,q),
(398,842,o),
(246,784,o),
(148,684,o),
(138,619,q),
(127,551,o),
(201,451,o),
(267,439,q),
(267,432,l),
(213,424,o),
(117,368,o),
(52,284,o),
(43,234,q),
(32,167,o),
(104,61,o),
(250,0,o),
(349,0,q),
(448,0,o)
);
},
{
closed = 1;
nodes = (
(294,162,o),
(267,222,o),
(274,258,q),
(278,294,o),
(326,352,o),
(395,386,o),
(435,386,q),
(476,386,o),
(535,353,o),
(562,295,o),
(556,258,q),
(549,222,o),
(504,163,o),
(435,129,o),
(394,129,q),
(354,129,o)
);
},
{
closed = 1;
nodes = (
(374,562,o),
(351,615,o),
(356,649,q),
(362,682,o),
(405,735,o),
(468,764,o),
(503,764,q),
(540,764,o),
(591,735,o),
(615,683,o),
(608,649,q),
(604,616,o),
(563,562,o),
(501,530,o),
(464,530,q),
(427,530,o)
);
}
);
width = 807;
},
{
layerId = "E47E1377-DCF2-49F5-8019-9A7312669877";
shapes = (
{
closed = 1;
nodes = (
(539,45,o),
(617,144,o),
(622,210,qs),
(626,262,o),
(590,352,o),
(522,417,o),
(479,428,q),
(479,433,l),
(538,444,o),
(615,541,o),
(620,606,qs),
(624,669,o),
(566,771,o),
(458,836,o),
(387,841,qs),
(316,846,o),
(200,797,o),
(129,703,o),
(125,641,qs),
(120,576,o),
(182,469,o),
(240,450,q),
(239,445,l),
(194,440,o),
(118,385,o),
(70,301,o),
(67,249,qs),
(62,183,o),
(125,74,o),
(247,6,o),
(329,1,qs),
(410,-5,o)
);
},
{
closed = 1;
nodes = (
(200,134,o),
(161,203,o),
(164,247,qs),
(168,293,o),
(218,342,o),
(294,252,o),
(346,248,qs),
(398,245,o),
(485,329,o),
(528,268,o),
(526,222,qs),
(521,178,o),
(473,115,o),
(391,85,o),
(335,89,qs),
(279,92,o)
);
},
{
closed = 1;
nodes = (
(251,519,o),
(217,585,o),
(220,628,qs),
(223,669,o),
(264,728,o),
(335,757,o),
(381,754,qs),
(426,751,o),
(492,712,o),
(526,648,o),
(523,607,qs),
(520,564,o),
(476,504,o),
(406,474,o),
(362,477,qs),
(317,480,o)
);
}
);
width = 716;
},
{
layerId = "2E32C3C1-CB0A-4F55-A80D-7437AACFC458";
shapes = (
{
closed = 1;
nodes = (
(565,54,o),
(636,148,o),
(636,208,qs),
(636,256,o),
(594,336,o),
(522,390,o),
(478,397,q),
(478,402,l),
(536,416,o),
(606,508,o),
(606,567,qs),
(606,625,o),
(541,714,o),
(429,766,o),
(358,766,qs),
(286,766,o),
(174,714,o),
(110,625,o),
(110,567,qs),
(110,508,o),
(179,416,o),
(238,402,q),
(238,397,l),
(193,390,o),
(121,336,o),
(79,256,o),
(80,208,qs),
(79,148,o),
(150,54,o),
(276,0,o),
(358,0,qs),
(440,0,o)
);
},
{
closed = 1;
nodes = (
(238,253,o),
(177,208,o),
(177,248,qs),
(177,266,o),
(224,319,o),
(306,356,o),
(358,356,qs),
(410,356,o),
(484,328,o),
(540,284,o),
(539,261,qs),
(538,231,o),
(480,268,o),
(395,294,o),
(358,294,qs),
(324,294,o)
);
},
{
closed = 1;
nodes = (
(244,466,o),
(206,523,o),
(206,562,qs),
(206,599,o),
(243,656,o),
(312,686,o),
(358,686,qs),
(403,686,o),
(471,656,o),
(510,599,o),
(510,562,qs),
(510,523,o),
(470,466,o),
(402,434,o),
(358,434,qs),
(313,434,o)
);
}
);
width = 716;
}
);
unicode = 56;
},
{
glyphname = nine;
lastChange = "2023-04-21 17:22:55 +0000";
layers = (
{
layerId = m01;
shapes = (
{
closed = 1;
nodes = (
(84,631,o),
(50,561,o),
(50,521,q),
(50,477,o),
(88,408,o),
(152,367,o),
(191,367,q),
(219,367,o),
(271,389,o),
(309,427,o),
(317,452,q),
(318,452,l),
(318,322,o),
(250,184,o),
(183,184,q),
(135,184,o),
(77,249,o),
(74,299,q),
(59,299,l),
(61,261,o),
(92,202,o),
(147,168,o),
(183,168,q),
(228,168,o),
(287,217,o),
(320,297,o),
(334,395,o),
(334,445,q),
(334,503,o),
(312,589,o),
(272,645,o),
(219,674,o),
(188,674,q),
(147,674,o)
);
},
{
closed = 1;
nodes = (
(268,629,o),
(303,571,o),
(311,528,q),
(317,499,o),
(302,447,o),
(268,406,o),
(220,383,o),
(192,383,q),
(156,383,o),
(99,419,o),
(65,482,o),
(65,521,q),
(65,559,o),
(97,621,o),
(152,658,o),
(188,658,q),
(218,658,o)
);
}
);
width = 384;
},
{
layerId = "8BBC5D12-C2A2-42BE-94C4-42D1DE80799C";
shapes = (
{
closed = 1;
nodes = (
(196,773,o),
(94,647,o),
(80,562,q),
(67,485,o),
(111,363,o),
(215,293,o),
(291,293,q),
(337,293,o),
(422,319,o),
(492,371,o),
(514,408,q),
(520,419,l),
(502,317,o),
(409,189,o),
(336,189,q),
(303,189,o),
(256,219,o),
(256,258,q),
(40,258,l),
(36,186,o),
(101,69,o),
(230,0,o),
(322,0,q),
(401,0,o),
(538,58,o),
(648,167,o),
(722,324,o),
(739,423,q),
(758,535,o),
(727,694,o),
(642,795,o),
(518,842,o),
(445,842,q),
(351,842,o)
);
},
{
closed = 1;
nodes = (
(495,683,o),
(520,621,o),
(514,581,qs),
(509,546,o),
(475,487,o),
(424,443,o),
(360,417,o),
(327,417,qs),
(287,417,o),
(231,452,o),
(209,513,o),
(214,551,qs),
(220,598,o),
(272,674,o),
(355,716,o),
(400,716,qs),
(440,716,o)
);
}
);
width = 789;
},
{
layerId = "E47E1377-DCF2-49F5-8019-9A7312669877";
shapes = (
{
closed = 1;
nodes = (
(123,753,o),
(65,623,o),
(70,548,qs),
(76,469,o),
(154,352,o),
(276,290,o),
(346,295,qs),
(389,298,o),
(462,330,o),
(520,382,o),
(540,418,q),
(546,418,l),
(556,267,o),
(458,94,o),
(364,88,qs),
(299,83,o),
(216,150,o),
(199,206,q),
(101,200,l),
(115,135,o),
(190,42,o),
(302,-5,o),
(370,0,qs),
(439,5,o),
(545,72,o),
(614,193,o),
(643,365,o),
(635,474,qs),
(627,586,o),
(567,732,o),
(478,813,o),
(375,843,o),
(324,841,qs),
(241,836,o)
);
},
{
closed = 1;
nodes = (
(474,608,o),
(517,601,o),
(520,573,qs),
(523,545,o),
(499,477,o),
(454,421,o),
(391,386,o),
(353,384,qs),
(303,380,o),
(220,411,o),
(168,471,o),
(161,520,qs),
(156,554,o),
(207,573,o),
(293,503,o),
(343,506,qs),
(395,508,o)
);
}
);
width = 718;
},
{
layerId = "2E32C3C1-CB0A-4F55-A80D-7437AACFC458";
shapes = (
{
closed = 1;
nodes = (
(147,695,o),
(80,581,o),
(80,513,qs),
(80,442,o),
(150,331,o),
(267,267,o),
(337,267,qs),
(380,267,o),
(455,292,o),
(517,335,o),
(539,366,q),
(545,366,l),
(545,229,o),
(435,80,o),
(341,80,qs),
(276,80,o),
(197,145,o),
(184,197,q),
(86,197,l),
(96,138,o),
(164,50,o),
(272,0,o),
(341,0,qs),
(410,0,o),
(520,54,o),
(597,159,o),
(638,312,o),
(638,411,qs),
(638,512,o),
(588,648,o),
(505,726,o),
(404,760,o),
(353,761,qs),
(270,762,o)
);
},
{
closed = 1;
nodes = (
(481,642,o),
(525,598,o),
(531,577,qs),
(539,548,o),
(520,536,o),
(458,577,o),
(387,603,o),
(348,603,qs),
(308,603,o),
(215,559,o),
(149,546,o),
(168,583,qs),
(184,614,o),
(232,652,o),
(303,681,o),
(353,681,qs),
(405,681,o)
);
}
);
width = 718;
}
);
unicode = 57;
},
